<svg width="179" height="96" viewBox="0 0 179 96" fill="none" xmlns="http://www.w3.org/2000/svg">
<path d="M69.9963 19.4068C67.951 19.4068 66.2476 19.5836 64.1452 19.2679C61.0171 19.0595 57.7116 19.2363 54.7544 20.3413C52.2848 21.2695 50.0241 22.9807 48.897 25.3612C49.1756 23.7447 49.5492 22.1346 50.2394 20.6507C50.9297 19.1668 51.9492 17.7966 53.3233 16.9C54.5201 16.117 55.9702 15.7066 57.4013 15.7508C59.5923 15.8266 61.5616 16.8874 63.4993 17.7903C65.589 18.7627 67.6723 19.3878 69.9963 19.4068Z" fill="#F1D675"/>
<path d="M43.0268 67.7166C42.8431 67.7166 42.6532 67.6472 42.5075 67.5083C35.01 60.4867 34.7504 52.7832 37.0111 47.9149C38.0812 45.5975 39.8163 43.5391 41.488 41.5501C42.4442 40.4135 43.3434 39.3464 44.1286 38.235C45.851 35.7977 47.0225 32.7731 47.5101 29.4897L47.662 28.4478C48.4156 23.1943 49.4478 15.996 56.0904 15.0804C58.7626 14.7142 60.7446 15.6613 62.847 16.6653C64.867 17.6314 66.9567 18.629 69.9962 18.6606C70.4141 18.6669 70.7561 19.0079 70.7497 19.4246C70.7434 19.8414 70.4078 20.1761 69.9898 20.1761H69.9835C66.6084 20.1382 64.2591 19.0142 62.1947 18.0229C60.2254 17.082 58.522 16.2675 56.3057 16.5706C50.8029 17.3283 49.8974 23.611 49.1755 28.6562L49.0235 29.7044C48.4979 33.2215 47.2378 36.467 45.3824 39.1001C44.5592 40.2619 43.5967 41.4111 42.6658 42.5161C41.0574 44.4294 39.392 46.4121 38.4042 48.54C35.3013 55.2332 39.0311 62.1537 43.5587 66.3969C43.8626 66.6811 43.8816 67.161 43.5903 67.4704C43.4257 67.6345 43.2294 67.7166 43.0268 67.7166Z" fill="#769763"/>
<path d="M43.0206 67.7178C42.6723 67.7178 42.3557 67.4779 42.2797 67.1243C40.1901 57.6717 46.1361 53.3843 46.3894 53.2075C50.4991 49.8672 52.8991 46.5648 52.9244 44.1654C52.9307 43.2751 52.6141 42.5742 51.9555 42.0122C51.1577 41.3366 50.0115 41.305 48.897 41.9364C47.1746 42.9088 45.4269 45.605 46.1488 50.0188C46.2185 50.4292 45.9335 50.8207 45.5219 50.8901C45.104 50.9596 44.7177 50.6755 44.648 50.265C43.7995 45.081 46.0032 41.8291 48.1498 40.6167C49.8152 39.6759 51.6516 39.7706 52.9371 40.8567C53.9376 41.7028 54.4568 42.852 54.4442 44.178C54.4125 47.0637 51.8796 50.7007 47.3076 54.4135C47.048 54.603 41.8998 58.36 43.7678 66.7959C43.8565 67.2064 43.5969 67.6105 43.1916 67.6989C43.1346 67.7115 43.0776 67.7178 43.0206 67.7178Z" fill="#769763"/>
<path d="M45.908 78.1047C45.4901 78.1047 45.1482 77.7638 45.1482 77.347C45.1482 76.5072 45.1292 75.6485 45.1102 74.7897C45.0278 70.8496 44.9392 66.7831 46.5223 63.0514C47.5165 60.7024 49.2578 59.0355 50.9486 57.4253C54.0071 54.5018 55.6028 52.0771 56.4577 49.0399C57.5849 45.0429 58.0535 40.3829 57.8508 35.1862C57.5912 28.6193 59.035 23.8899 62.1441 21.1242C65.6523 18.005 69.9329 18.6301 70.1102 18.6553C70.5282 18.7185 70.8068 19.11 70.7435 19.5204C70.6801 19.9308 70.2939 20.2213 69.8759 20.1518C69.8379 20.1455 66.0955 19.6214 63.132 22.2671C60.3901 24.7171 59.1236 29.0424 59.3643 35.1231C59.5732 40.4776 59.0856 45.2955 57.9205 49.444C56.7617 53.5546 54.2731 56.3329 51.9997 58.5114C50.3533 60.0836 48.7956 61.5738 47.9217 63.6323C46.4716 67.0673 46.5539 70.9759 46.6299 74.7518C46.6489 75.6232 46.6679 76.4883 46.6679 77.3407C46.6679 77.7701 46.326 78.1047 45.908 78.1047Z" fill="#769763"/>
<path d="M81.4833 57.7854C81.0653 57.7854 80.7234 57.4444 80.7234 57.0277V35.4579C80.7234 35.0412 81.0653 34.7002 81.4833 34.7002C81.9012 34.7002 82.2432 35.0412 82.2432 35.4579V57.0277C82.2432 57.4444 81.9012 57.7854 81.4833 57.7854Z" fill="#769763"/>
<path d="M86.3465 43.1551H81.4833C81.0653 43.1551 80.7234 42.8141 80.7234 42.3974C80.7234 41.9806 81.0653 41.6396 81.4833 41.6396H86.3465C87.8473 41.6396 89.0694 40.421 89.0694 38.9308C89.0694 37.4343 87.8473 36.2156 86.3465 36.2156H81.4833C81.0653 36.2156 80.7234 35.8747 80.7234 35.4579C80.7234 35.0412 81.0653 34.7002 81.4833 34.7002H86.3465C88.6831 34.7002 90.5892 36.5945 90.5892 38.9308C90.5892 41.2671 88.6831 43.1551 86.3465 43.1551Z" fill="#769763"/>
<path d="M90.5132 57.7854C90.1712 57.7854 89.8546 57.5517 89.7723 57.2045L86.2895 42.5742C86.1945 42.1637 86.4478 41.7596 86.8531 41.6586C87.2647 41.5639 87.6699 41.8164 87.7713 42.2205L91.2541 56.8509C91.349 57.2613 91.0958 57.6654 90.6905 57.7664C90.6335 57.7791 90.5702 57.7854 90.5132 57.7854Z" fill="#769763"/>
<path d="M112.081 57.9875C110.504 57.9875 109.168 56.813 108.972 55.2534L106.496 35.7547C106.445 35.338 106.737 34.9591 107.155 34.9086C107.572 34.8518 107.952 35.1485 108.003 35.5653L110.485 55.0702C110.587 55.8722 111.277 56.4783 112.087 56.4783C112.898 56.4783 113.582 55.8722 113.683 55.0702L116.159 35.5716C116.21 35.1548 116.59 34.8581 117.008 34.9149C117.426 34.9654 117.717 35.3443 117.666 35.761L115.19 55.2597C114.994 56.813 113.658 57.9875 112.081 57.9875Z" fill="#769763"/>
<path d="M142.305 57.9874H134.029C133.611 57.9874 133.269 57.6464 133.269 57.2297V35.8683C133.269 35.4516 133.611 35.1106 134.029 35.1106C134.447 35.1106 134.789 35.4516 134.789 35.8683V56.472H142.299C142.717 56.472 143.059 56.8129 143.059 57.2297C143.059 57.6464 142.723 57.9874 142.305 57.9874Z" fill="#769763"/>
<path d="M102.165 47.0005H96.0538C95.6359 47.0005 95.2939 46.6596 95.2939 46.2428C95.2939 45.8261 95.6359 45.4851 96.0538 45.4851H102.165C102.582 45.4851 102.924 45.8261 102.924 46.2428C102.924 46.6596 102.582 47.0005 102.165 47.0005Z" fill="#F1D675"/>
<path d="M103.868 57.7854C103.488 57.7854 103.165 57.5075 103.114 57.1224L100.639 37.6237C100.537 36.8218 99.847 36.2156 99.0364 36.2156C98.2259 36.2156 97.542 36.8218 97.4343 37.6237L94.9711 57.1224C94.9204 57.5391 94.5341 57.8359 94.1225 57.7791C93.7046 57.7285 93.4133 57.3497 93.464 56.9329L95.9399 37.4343C96.1362 35.8747 97.4723 34.7002 99.0491 34.7002C100.626 34.7002 101.962 35.8747 102.158 37.4343L104.634 56.9329C104.685 57.3497 104.394 57.7285 103.976 57.7791C103.931 57.7791 103.9 57.7854 103.868 57.7854Z" fill="#769763"/>
<path d="M127.665 46.1734H121.383C120.965 46.1734 120.623 45.8324 120.623 45.4157C120.623 44.9989 120.965 44.658 121.383 44.658H127.665C128.083 44.658 128.425 44.9989 128.425 45.4157C128.425 45.8324 128.083 46.1734 127.665 46.1734Z" fill="#F1D675"/>
<path d="M128.868 57.855H121.39C120.972 57.855 120.63 57.514 120.63 57.0972V35.9442C120.63 35.5275 120.972 35.1865 121.39 35.1865H128.666C129.084 35.1865 129.426 35.5275 129.426 35.9442C129.426 36.361 129.084 36.702 128.666 36.702H122.15V56.3395H128.868C129.286 56.3395 129.628 56.6805 129.628 57.0972C129.628 57.514 129.286 57.855 128.868 57.855Z" fill="#769763"/>
<path d="M72.9537 57.7854C72.5358 57.7854 72.1938 57.4444 72.1938 57.0277V35.4579C72.1938 35.0412 72.5358 34.7002 72.9537 34.7002C73.3717 34.7002 73.7136 35.0412 73.7136 35.4579V57.034C73.7136 57.4507 73.3717 57.7854 72.9537 57.7854Z" fill="#769763"/>
<path d="M77.4685 36.2156H68.4386C68.0207 36.2156 67.6787 35.8747 67.6787 35.4579C67.6787 35.0412 68.0207 34.7002 68.4386 34.7002H77.4685C77.8864 34.7002 78.2284 35.0412 78.2284 35.4579C78.2284 35.8747 77.8928 36.2156 77.4685 36.2156Z" fill="#769763"/>
<path d="M75.2711 66.1267C75.2078 66.0699 75.1761 66.0004 75.1761 65.9183C75.1761 65.8236 75.2141 65.7478 75.2901 65.6973C75.3661 65.6405 75.4547 65.6089 75.5497 65.6089C75.5561 65.6089 75.5624 65.6089 75.5624 65.6089C75.6637 65.6152 75.7524 65.6468 75.8283 65.71C76.4932 66.2719 77.0125 66.796 77.3861 67.2885C77.4368 67.358 77.4621 67.4338 77.4621 67.5095C77.4621 67.5348 77.4621 67.5601 77.4558 67.5853C77.4431 67.6863 77.3861 67.7747 77.2974 67.8442C77.2341 67.8947 77.1645 67.92 77.0885 67.92C77.0632 67.92 77.0378 67.92 77.0125 67.9137C76.9112 67.8947 76.8289 67.8379 76.7655 67.7495C76.6895 67.6421 76.6009 67.5285 76.5059 67.4148C76.4806 67.3832 76.4489 67.3706 76.4173 67.3769C75.7967 67.4085 74.0743 67.478 71.2627 67.5979C71.2564 67.5979 71.2501 67.5979 71.2501 67.5979C71.1551 67.5979 71.0728 67.5664 71.0031 67.5095C70.9208 67.4338 70.8765 67.3391 70.8765 67.2254C70.8765 67.1433 70.9081 67.0675 70.9651 67.0044C71.0284 66.9286 71.1108 66.8907 71.2121 66.8844L71.9466 66.8592C71.9783 66.8592 72.01 66.8465 72.0289 66.815C72.4026 66.2467 72.7318 65.6405 73.0295 65.0027C73.0801 64.9017 73.1561 64.8196 73.2701 64.7754C73.3271 64.7502 73.3904 64.7375 73.4474 64.7375C73.498 64.7375 73.5487 64.7439 73.593 64.7628C73.6944 64.7944 73.7703 64.8638 73.8083 64.9712C73.8273 65.0154 73.84 65.0596 73.84 65.1038C73.84 65.1606 73.8273 65.2111 73.7957 65.268C73.4981 65.8047 73.1941 66.3098 72.8775 66.7834C72.8711 66.796 72.8711 66.8023 72.8775 66.815C72.8838 66.8276 72.8901 66.8276 72.9028 66.8276C74.8152 66.7518 75.7904 66.7139 75.8347 66.7139C75.8473 66.7139 75.8537 66.7076 75.86 66.7013C75.8663 66.695 75.86 66.6824 75.8537 66.6697C75.6384 66.4677 75.4484 66.2846 75.2711 66.1267ZM72.0733 71.6265C71.972 71.6265 71.8896 71.5886 71.82 71.5191C71.7503 71.4497 71.7123 71.3613 71.7123 71.2666V68.8166C71.7123 68.6903 71.7567 68.5893 71.8453 68.5072C71.934 68.4251 72.0353 68.3809 72.1556 68.3809H76.1703C76.2906 68.3809 76.3919 68.4251 76.4806 68.5072C76.5692 68.5893 76.6136 68.6966 76.6136 68.8166V71.2413C76.6136 71.3423 76.5756 71.4307 76.4996 71.5065C76.4236 71.5823 76.3349 71.6202 76.2336 71.6202H76.1323C76.0563 71.6202 75.9867 71.5949 75.9297 71.5381C75.8727 71.4812 75.8473 71.4181 75.8473 71.3486C75.8473 71.3234 75.8347 71.3108 75.8157 71.3108H72.4785C72.4595 71.3108 72.4469 71.3234 72.4469 71.3486C72.4469 71.4244 72.4216 71.4939 72.3646 71.5507C72.3076 71.6075 72.2379 71.6328 72.1619 71.6328H72.0733V71.6265ZM75.8347 69.1007C75.8347 69.0692 75.8157 69.0502 75.784 69.0502H72.4912C72.4595 69.0502 72.4405 69.0692 72.4405 69.1007V70.5657C72.4405 70.6036 72.4595 70.6225 72.4912 70.6225H75.784C75.8157 70.6225 75.8347 70.6036 75.8347 70.5657V69.1007Z" fill="#769763"/>
<path d="M84.3264 67.257C84.4024 67.3138 84.4404 67.3896 84.4531 67.4843C84.4594 67.4969 84.4594 67.5159 84.4594 67.5285C84.4594 67.6043 84.4341 67.68 84.3771 67.7495C84.3264 67.8189 84.2568 67.8568 84.1681 67.8695C84.1554 67.8695 84.1428 67.8695 84.1301 67.8695C84.0541 67.8695 83.9845 67.8442 83.9212 67.7937C83.7502 67.6611 83.5602 67.5222 83.3512 67.3896C83.2816 67.3517 83.2373 67.2885 83.2246 67.2065C83.2183 67.1938 83.2183 67.1749 83.2183 67.1559C83.2183 67.0991 83.2373 67.0423 83.2753 66.9918C83.3322 66.9223 83.4019 66.8781 83.4906 66.8592C83.5222 66.8528 83.5475 66.8528 83.5729 66.8528C83.6299 66.8528 83.6869 66.8655 83.7438 66.897C83.9718 67.017 84.1681 67.137 84.3264 67.257ZM84.0098 71.2034C83.9781 71.2918 83.9085 71.3486 83.8198 71.3802C83.7882 71.3928 83.7502 71.3928 83.7185 71.3928C83.6615 71.3928 83.6109 71.3802 83.5602 71.355C83.4716 71.2981 83.4082 71.2287 83.3766 71.134C83.3639 71.0898 83.3639 71.0456 83.3639 71.0077C83.3639 70.9508 83.3766 70.9003 83.3956 70.8435C83.6362 70.2878 83.8705 69.7069 84.0921 69.0818C84.1175 69.006 84.1681 68.9492 84.2504 68.9239C84.3328 68.8987 84.4087 68.905 84.4784 68.9492C84.5544 69.006 84.6114 69.0755 84.6494 69.1702C84.6684 69.2207 84.681 69.2712 84.681 69.3154C84.681 69.3596 84.6747 69.4038 84.6557 69.448C84.4531 70.0668 84.2378 70.6478 84.0098 71.2034ZM84.4847 65.3248C84.567 65.3879 84.6114 65.47 84.6114 65.5774C84.6114 65.6658 84.5797 65.7478 84.5227 65.8173C84.4657 65.8868 84.3961 65.9183 84.3011 65.9183H84.2948C84.2124 65.9183 84.1364 65.8931 84.0731 65.8362C83.9211 65.6973 83.7312 65.5521 83.5095 65.4006C83.4462 65.3564 83.4082 65.2932 83.3956 65.2174C83.3829 65.1417 83.4019 65.0659 83.4589 65.0027C83.5159 64.9396 83.5919 64.9017 83.6805 64.8828C83.6932 64.8765 83.7185 64.8765 83.7438 64.8765C83.8072 64.8765 83.8705 64.8954 83.9275 64.927C84.1364 65.0596 84.3201 65.1922 84.4847 65.3248ZM84.8457 67.3833C84.8583 67.3264 84.89 67.2759 84.9407 67.2443C84.9787 67.2191 85.0166 67.2065 85.061 67.2065C85.0736 67.2065 85.0926 67.2064 85.1116 67.2128C85.1686 67.2254 85.2193 67.2506 85.2509 67.3075C85.2826 67.3643 85.2953 67.4148 85.2826 67.4717C85.2193 67.7305 85.137 67.9579 85.042 68.1536C85.0166 68.2041 84.9786 68.2357 84.9217 68.2546C84.8647 68.2736 84.8077 68.2673 84.757 68.242C84.7064 68.2167 84.6747 68.1789 84.6557 68.122C84.643 68.0968 84.643 68.0715 84.643 68.0463C84.643 68.0147 84.6494 67.9894 84.6684 67.9579C84.738 67.7937 84.8013 67.5979 84.8457 67.3833ZM84.89 65.792C84.8393 65.7542 84.814 65.7036 84.8077 65.6468C84.8013 65.59 84.814 65.5332 84.8393 65.4826L84.89 65.4069C84.909 65.3753 84.9343 65.3627 84.9723 65.3564C85.0103 65.35 85.042 65.3564 85.0673 65.3816C85.08 65.3879 85.0863 65.3816 85.0926 65.3753C85.1939 65.1922 85.2763 65.028 85.3459 64.8765C85.3713 64.8196 85.4156 64.7754 85.4789 64.7502C85.5042 64.7376 85.5296 64.7375 85.5612 64.7375C85.5929 64.7375 85.6182 64.7439 85.6499 64.7628C85.7069 64.7881 85.7512 64.8323 85.7702 64.8954C85.7892 64.9586 85.7829 65.0154 85.7449 65.0722C85.5992 65.3122 85.4916 65.489 85.4156 65.6026C85.3966 65.6342 85.4029 65.6594 85.4282 65.6847C85.4599 65.7163 85.5042 65.7542 85.5549 65.7984C85.5802 65.8236 85.5992 65.8236 85.6245 65.792C85.6942 65.6847 85.7512 65.5837 85.8019 65.4953C85.8335 65.4384 85.8778 65.4069 85.9475 65.3816C86.0172 65.3564 86.0741 65.369 86.1311 65.4069C86.1881 65.4384 86.2261 65.489 86.2388 65.5521C86.2514 65.6152 86.2388 65.6721 86.2008 65.7226C85.9855 66.0194 85.7892 66.2719 85.6245 66.4803C85.6182 66.4929 85.6182 66.4992 85.6245 66.5056C85.6309 66.5119 85.6372 66.5182 85.6499 66.5182L85.9982 66.5119C86.0172 66.5119 86.0235 66.4992 86.0235 66.4803C86.0172 66.4677 86.0108 66.4487 86.0108 66.4298C85.9918 66.3856 85.9918 66.3414 86.0108 66.2972C86.0298 66.253 86.0615 66.2277 86.0995 66.2151C86.1501 66.1962 86.1945 66.1962 86.2388 66.2088C86.2831 66.2214 86.3148 66.2593 86.3338 66.3035C86.4034 66.455 86.4604 66.6192 86.5111 66.7834C86.5237 66.8402 86.5174 66.8907 86.4921 66.9349C86.4667 66.9791 86.4288 67.017 86.3781 67.036L86.3528 67.0423C86.3148 67.0549 86.2768 67.0549 86.2324 67.036C86.1881 67.017 86.1691 66.9854 86.1565 66.9412C86.1565 66.9286 86.1501 66.916 86.1311 66.916L85.9158 66.9286C85.8842 66.9349 85.8652 66.9539 85.8652 66.9854V68.2231C85.8652 68.2862 85.8398 68.343 85.7955 68.3872C85.7512 68.4314 85.6942 68.4567 85.6309 68.4567C85.5676 68.4567 85.5106 68.4314 85.4662 68.3872C85.4219 68.343 85.3966 68.2862 85.3966 68.2231V67.0233C85.3966 66.9855 85.3776 66.9665 85.3459 66.9728C85.2319 66.9854 85.099 66.9918 84.947 67.0044C84.8837 67.0107 84.8267 66.9918 84.776 66.9476C84.7254 66.9034 84.7 66.8528 84.6874 66.7897C84.681 66.7266 84.7 66.6697 84.7444 66.6255C84.7887 66.5813 84.8393 66.5561 84.8963 66.5561L85.042 66.5498C85.0736 66.5498 85.099 66.5371 85.118 66.5119C85.1813 66.4361 85.2446 66.3603 85.3016 66.2719C85.3269 66.2404 85.3269 66.2151 85.3016 66.1835C85.1623 66.0383 85.0293 65.912 84.89 65.792ZM85.9222 70.0163C85.9158 70.029 85.9158 70.0353 85.9285 70.0479C85.9412 70.0605 85.9475 70.0668 85.9602 70.0668H89.3353C89.4493 70.0668 89.5443 70.111 89.6203 70.1994C89.6772 70.2626 89.7089 70.332 89.7089 70.4141C89.7089 70.4394 89.7026 70.4646 89.6962 70.4962C89.5823 70.9887 89.4366 71.3108 89.253 71.4497C89.1073 71.5507 88.8984 71.6075 88.6324 71.6202C88.2841 71.6202 87.9928 71.6139 87.7522 71.6075C87.6762 71.6075 87.6002 71.5823 87.5432 71.5254C87.4863 71.4686 87.4356 71.3992 87.4039 71.3171C87.3849 71.2602 87.3913 71.2097 87.4229 71.1592C87.4546 71.1087 87.4989 71.0834 87.5622 71.0898C87.8599 71.1087 88.1511 71.1213 88.4298 71.1213C88.5881 71.1213 88.6957 71.1024 88.7591 71.0708C88.8604 70.995 88.949 70.8309 89.0187 70.5846C89.0187 70.572 89.0123 70.5594 89.006 70.5467C88.9997 70.5341 88.987 70.5278 88.9744 70.5278H85.8209C85.8019 70.5278 85.7892 70.5404 85.7829 70.5594C85.7702 70.6162 85.7322 70.6667 85.6815 70.6983C85.6309 70.7298 85.5739 70.7425 85.5169 70.7298L85.4029 70.7172C85.3269 70.7046 85.2636 70.6667 85.2193 70.5909C85.1876 70.5467 85.175 70.5025 85.175 70.452C85.175 70.4268 85.1813 70.4015 85.1876 70.3699C85.2446 70.1931 85.3016 69.9911 85.3586 69.7638C85.3903 69.6375 85.4536 69.5364 85.5549 69.4607C85.6562 69.3849 85.7702 69.3407 85.8905 69.3407H88.7147C88.7527 69.3407 88.7717 69.3218 88.7717 69.2839V69.0692C88.7717 69.0376 88.7527 69.0187 88.7147 69.0187H85.4029C85.3459 69.0187 85.2953 68.9997 85.2509 68.9555C85.2066 68.9113 85.1876 68.8608 85.1876 68.804C85.1876 68.7471 85.2066 68.6966 85.2509 68.6524C85.2953 68.6082 85.3459 68.5893 85.4029 68.5893H88.9933C89.1137 68.5893 89.215 68.6335 89.3036 68.7219C89.3923 68.8103 89.4366 68.9113 89.4366 69.0313V69.3344C89.4366 69.4543 89.3923 69.5554 89.3036 69.6438C89.215 69.7322 89.1137 69.7764 88.9933 69.7764H86.0551C86.0172 69.7764 85.9918 69.7953 85.9792 69.8269L85.9222 70.0163ZM86.4731 67.8C86.4857 67.8568 86.4731 67.9073 86.4414 67.9515C86.4098 67.9957 86.3718 68.0336 86.3148 68.0526C86.2641 68.0652 86.2198 68.0526 86.1755 68.0273C86.1311 68.0021 86.1058 67.9579 86.0931 67.9073C86.0678 67.7621 86.0362 67.6106 85.9982 67.4653C85.9855 67.4085 85.9982 67.3643 86.0235 67.3201C86.0488 67.2759 86.0868 67.2506 86.1375 67.238C86.1945 67.2254 86.2388 67.238 86.2831 67.2633C86.3274 67.2885 86.3591 67.3264 86.3718 67.3769C86.4098 67.5095 86.4414 67.6548 86.4731 67.8ZM88.2081 65.71C88.2018 65.7036 88.2018 65.71 88.2018 65.7163C88.2018 65.7478 88.1891 65.7668 88.1701 65.7857C88.1512 65.8047 88.1258 65.811 88.0942 65.811H86.5871C86.5301 65.811 86.4857 65.792 86.4478 65.7542C86.4098 65.7163 86.3908 65.6721 86.3908 65.6152C86.3908 65.5584 86.4098 65.5142 86.4478 65.4763C86.4857 65.4384 86.5364 65.4195 86.5871 65.4195H88.0815C88.1132 65.4195 88.1385 65.4321 88.1638 65.4574C88.1891 65.4826 88.2018 65.5142 88.2018 65.5458H88.2081L88.3095 65.4069C88.3348 65.3816 88.3665 65.369 88.3981 65.3627C88.4298 65.3564 88.4614 65.3627 88.4868 65.3879C88.4994 65.3942 88.5058 65.3879 88.5121 65.3816C88.6134 65.2111 88.7021 65.0406 88.7781 64.8765C88.8097 64.8196 88.854 64.7754 88.911 64.7565C88.9364 64.7439 88.9617 64.7439 88.987 64.7439C89.0187 64.7439 89.0567 64.7502 89.0883 64.7691C89.1453 64.8007 89.177 64.8449 89.196 64.908C89.215 64.9712 89.2023 65.028 89.1707 65.0848C89.025 65.3248 88.911 65.4953 88.8287 65.6089C88.8097 65.6405 88.8097 65.6658 88.835 65.691C88.8857 65.7352 88.93 65.7794 88.968 65.8236C88.9997 65.8552 89.025 65.8552 89.044 65.8236C89.12 65.71 89.2023 65.59 89.2846 65.4637C89.3163 65.4069 89.367 65.369 89.4303 65.35C89.4936 65.3311 89.5569 65.3437 89.6139 65.3753C89.6709 65.4069 89.7026 65.4574 89.7152 65.5205C89.7279 65.5837 89.7152 65.6405 89.6772 65.6847C89.405 66.032 89.1897 66.3035 89.025 66.4866C89.0187 66.4992 89.0187 66.5056 89.025 66.5182C89.0313 66.5308 89.0377 66.5308 89.0503 66.5245L89.4999 66.5182C89.5189 66.5182 89.5253 66.5056 89.5126 66.4866C89.4999 66.4614 89.4936 66.4361 89.4809 66.4108C89.4556 66.3666 89.4556 66.3224 89.4683 66.2719C89.4809 66.2214 89.5189 66.1898 89.5633 66.1709C89.6139 66.1456 89.6646 66.1456 89.7216 66.1583C89.7786 66.1709 89.8166 66.2088 89.8419 66.2593C89.9242 66.4108 90.0002 66.5687 90.0635 66.7329C90.0825 66.7897 90.0825 66.8465 90.0572 66.9034C90.0319 66.9602 89.9939 66.9981 89.9432 67.0233L89.9052 67.036C89.8672 67.0549 89.8229 67.0549 89.7849 67.036C89.7469 67.017 89.7152 66.9854 89.7089 66.9412C89.7026 66.9286 89.6962 66.916 89.6772 66.916L89.3923 66.9412C89.3606 66.9412 89.3416 66.9602 89.3416 66.9981V68.2167C89.3416 68.2799 89.3163 68.3367 89.272 68.3809C89.2276 68.4251 89.1707 68.4504 89.101 68.4504C89.0313 68.4504 88.9744 68.4251 88.93 68.3809C88.8857 68.3367 88.8604 68.2799 88.8604 68.2167V67.0233C88.8604 66.9855 88.8414 66.9665 88.8097 66.9728L88.4044 66.9981C88.3411 67.0044 88.2841 66.9854 88.2335 66.9412C88.1828 66.897 88.1575 66.8465 88.1512 66.7834C88.1448 66.7202 88.1638 66.6634 88.2018 66.6192C88.2398 66.575 88.2905 66.5434 88.3601 66.5434H88.4488C88.4804 66.5434 88.5058 66.5308 88.5248 66.5119C88.5564 66.4677 88.6134 66.3982 88.6957 66.2972C88.7211 66.2656 88.7211 66.2404 88.6957 66.2088C88.5691 66.0446 88.4108 65.8804 88.2081 65.71ZM87.0367 68.3367C86.9163 68.3367 86.815 68.2925 86.7264 68.2104C86.6377 68.1283 86.5934 68.021 86.5934 67.901V67.6548C86.5934 67.5285 86.6377 67.4275 86.7264 67.3454C86.815 67.2633 86.9163 67.2191 87.0367 67.2191H87.5939C87.7205 67.2191 87.8219 67.2633 87.9042 67.3454C87.9865 67.4275 88.0308 67.5348 88.0308 67.6548V67.901C88.0308 68.0273 87.9865 68.1283 87.9042 68.2104C87.8219 68.2925 87.7142 68.3367 87.5939 68.3367H87.0367ZM87.8472 66.0509C87.8979 66.0509 87.9358 66.0699 87.9738 66.1014C88.0118 66.133 88.0245 66.1772 88.0245 66.2277C88.0245 66.2782 88.0055 66.3161 87.9738 66.354C87.9422 66.3919 87.8979 66.4045 87.8472 66.4045H86.796C86.7454 66.4045 86.7074 66.3856 86.6694 66.354C86.6314 66.3224 86.6187 66.2782 86.6187 66.2277C86.6187 66.1772 86.6377 66.1393 86.6694 66.1014C86.701 66.0636 86.7454 66.0509 86.796 66.0509H87.8472ZM86.7897 66.9791C86.739 66.9791 86.701 66.9602 86.663 66.9286C86.6251 66.897 86.6124 66.8529 86.6124 66.8023C86.6124 66.7518 86.6314 66.7139 86.663 66.676C86.6947 66.6382 86.739 66.6255 86.7897 66.6255H87.8409C87.8915 66.6255 87.9295 66.6445 87.9675 66.676C88.0055 66.7076 88.0182 66.7518 88.0182 66.8023C88.0182 66.8529 87.9992 66.8907 87.9675 66.9286C87.9359 66.9665 87.8915 66.9791 87.8409 66.9791H86.7897ZM87.7902 64.8259C87.8409 64.8259 87.8789 64.8449 87.9169 64.8828C87.9548 64.9207 87.9675 64.9649 87.9675 65.0154C87.9675 65.0659 87.9485 65.1038 87.9169 65.1417C87.8852 65.1796 87.8409 65.1922 87.7902 65.1922H86.8467C86.796 65.1922 86.7517 65.1732 86.7137 65.1417C86.6757 65.1101 86.6567 65.0659 86.6567 65.0154C86.6567 64.9649 86.6757 64.9207 86.7137 64.8828C86.7517 64.8449 86.796 64.8259 86.8467 64.8259H87.7902ZM87.1 67.5664C87.062 67.5664 87.043 67.5853 87.043 67.6232V67.9326C87.043 67.9642 87.062 67.9831 87.1 67.9831H87.5306C87.5622 67.9831 87.5812 67.9642 87.5812 67.9326V67.6232C87.5812 67.5853 87.5622 67.5664 87.5306 67.5664H87.1ZM88.3158 67.3833C88.3285 67.3264 88.3664 67.2759 88.4171 67.2443C88.4678 67.2128 88.5248 67.2001 88.5817 67.2128C88.6387 67.2254 88.6894 67.257 88.7211 67.3075C88.7527 67.358 88.7591 67.4148 88.7464 67.4717C88.6831 67.7242 88.6134 67.9389 88.5374 68.1157C88.5121 68.1725 88.4678 68.2041 88.4108 68.2294C88.3538 68.2546 88.2968 68.242 88.2461 68.2167C88.1891 68.1852 88.1575 68.141 88.1322 68.0841C88.1068 68.0273 88.1132 67.9705 88.1385 67.92C88.2081 67.7684 88.2651 67.5916 88.3158 67.3833ZM89.5253 67.4527C89.5063 67.4085 89.5063 67.3643 89.5316 67.3138C89.5569 67.2633 89.5886 67.2317 89.6392 67.2191C89.6962 67.2064 89.7469 67.2065 89.7976 67.2317C89.8482 67.257 89.8799 67.2949 89.8989 67.3454C89.9875 67.5601 90.0572 67.7495 90.1078 67.9326C90.1142 67.9515 90.1142 67.9705 90.1142 67.9894C90.1142 68.021 90.1015 68.0589 90.0825 68.0841C90.0508 68.141 90.0129 68.1725 89.9559 68.1852C89.9052 68.2041 89.8609 68.2041 89.8102 68.1725C89.7596 68.141 89.7342 68.1031 89.7152 68.0526C89.6646 67.8695 89.6013 67.6674 89.5253 67.4527Z" fill="#769763"/>
<path d="M101.683 70.9254H101.949C102.006 70.9254 102.044 70.8875 102.063 70.8055C102.082 70.7234 102.101 70.5466 102.114 70.2751C102.114 70.2119 102.139 70.1614 102.196 70.1361C102.253 70.1109 102.31 70.1046 102.373 70.1298C102.456 70.1614 102.519 70.2182 102.563 70.294C102.608 70.3508 102.633 70.4203 102.633 70.4961C102.633 70.8433 102.576 71.1149 102.456 71.3043C102.367 71.4369 102.221 71.5063 102.025 71.5063H101.582C101.335 71.5063 101.17 71.4558 101.088 71.3485C101.006 71.2411 100.968 71.0391 100.968 70.7423V69.2711C100.968 69.2332 100.949 69.2142 100.911 69.2142H100.619C100.588 69.2142 100.562 69.2332 100.562 69.2711C100.531 69.8015 100.442 70.2435 100.309 70.5781C100.176 70.9128 99.9418 71.1969 99.6252 71.4116C99.5492 71.4558 99.4795 71.4811 99.4036 71.4811C99.3719 71.4811 99.3339 71.4748 99.2896 71.4685C99.1756 71.4369 99.0743 71.3674 98.992 71.2664C98.973 71.2411 98.9413 71.2285 98.9033 71.2285H96.7377C96.706 71.2285 96.6933 71.2411 96.6933 71.2664V71.279C96.6933 71.3548 96.668 71.4243 96.611 71.4811C96.554 71.5379 96.4907 71.5632 96.4084 71.5632C96.3261 71.5632 96.2627 71.5379 96.2057 71.4811C96.1488 71.4243 96.1234 71.3548 96.1234 71.279V69.4731C96.1234 69.4605 96.1171 69.4542 96.1108 69.4542C96.1044 69.4542 96.0918 69.4542 96.0854 69.4668C96.0601 69.4984 96.0348 69.5363 96.0094 69.5678C95.9588 69.6247 95.8955 69.6562 95.8258 69.6499C95.7561 69.6436 95.6928 69.612 95.6485 69.5489C95.5978 69.4858 95.5725 69.4163 95.5725 69.3342C95.5725 69.2458 95.6042 69.1637 95.6612 69.0943C95.9651 68.7154 96.2057 68.2608 96.3957 67.7304C96.402 67.7177 96.402 67.7051 96.3894 67.6925C96.3767 67.6799 96.3704 67.6735 96.3577 67.6735H96.2754C96.1488 67.6735 96.0474 67.6293 95.9651 67.5473C95.8828 67.4652 95.8385 67.3578 95.8385 67.2379V66.6948C95.8385 66.5685 95.8828 66.4675 95.9651 66.3854C96.0474 66.3033 96.1551 66.2591 96.2754 66.2591H96.8833C97.0099 66.2591 97.1113 66.3033 97.1936 66.3854C97.2759 66.4675 97.3202 66.5748 97.3202 66.6948V67.2379C97.3202 67.3641 97.2759 67.4652 97.1936 67.5473C97.1113 67.6293 97.0036 67.6735 96.8833 67.6735H96.7693V67.6799C96.8263 67.6925 96.8643 67.7241 96.8896 67.7746C96.915 67.8251 96.915 67.8756 96.896 67.9198C96.8706 67.9893 96.839 68.0777 96.801 68.1787C96.7946 68.1913 96.7946 68.2039 96.8073 68.2166C96.82 68.2292 96.8263 68.2292 96.8326 68.2292H97.4532C97.4849 68.2292 97.5102 68.2103 97.5292 68.1787C97.6115 67.9451 97.6622 67.7809 97.6875 67.6735C97.6938 67.6672 97.6938 67.6672 97.6875 67.6672C97.6495 67.6672 97.6305 67.6483 97.6305 67.6167V66.6948C97.6305 66.5685 97.6748 66.4675 97.7635 66.3854C97.8521 66.3033 97.9535 66.2591 98.0738 66.2591H98.7323C98.859 66.2591 98.9603 66.3033 99.0426 66.3854C99.1249 66.4675 99.1693 66.5748 99.1693 66.6948V67.2379C99.1693 67.3641 99.1249 67.4652 99.0426 67.5473C98.9603 67.6293 98.8527 67.6735 98.7323 67.6735H97.9471C97.9408 67.6735 97.9408 67.6799 97.9408 67.6862C98.0358 67.7051 98.0991 67.7619 98.1434 67.8503C98.1624 67.8882 98.1751 67.9261 98.1751 67.9703C98.1751 68.0145 98.1624 68.0587 98.1371 68.1029C98.1244 68.1282 98.1118 68.1534 98.0928 68.185C98.0864 68.1976 98.0864 68.2103 98.0991 68.2229C98.1118 68.2355 98.1181 68.2355 98.1244 68.2355H98.9793C99.049 68.2355 99.1059 68.2608 99.1566 68.3113C99.2073 68.3618 99.2263 68.4186 99.2263 68.4881C99.2263 68.5576 99.2009 68.6144 99.1566 68.6649C99.1123 68.7154 99.049 68.7407 98.9793 68.7407H98.0421C98.0041 68.7407 97.9851 68.7596 97.9851 68.7912V69.0501C97.9851 69.088 98.0041 69.1069 98.0421 69.1069H98.8526C98.916 69.1069 98.973 69.1258 99.011 69.17C99.049 69.2142 99.0743 69.2648 99.0743 69.3279C99.0743 69.391 99.0553 69.4416 99.011 69.4858C98.9666 69.53 98.916 69.5489 98.8526 69.5489H98.0421C98.0041 69.5489 97.9851 69.5678 97.9851 69.6057V69.8709C97.9851 69.9025 98.0041 69.9214 98.0421 69.9214H98.8526C98.916 69.9214 98.973 69.9467 99.011 69.9909C99.049 70.0351 99.0743 70.0856 99.0743 70.1488C99.0743 70.2119 99.0553 70.2624 99.011 70.3066C98.9666 70.3508 98.916 70.3761 98.8526 70.3761H98.0421C98.0041 70.3761 97.9851 70.395 97.9851 70.4266V70.6981C97.9851 70.7297 98.0041 70.7486 98.0421 70.7486H99.0869C99.1249 70.7486 99.1629 70.7613 99.1883 70.7928C99.2136 70.8244 99.2326 70.8623 99.2326 70.9065C99.2326 70.9191 99.2389 70.9254 99.2579 70.9128C99.5049 70.7423 99.6822 70.5339 99.7835 70.2751C99.8848 70.0162 99.9481 69.6815 99.9735 69.2711C99.9798 69.2395 99.9608 69.2206 99.9291 69.2206C99.8215 69.2206 99.7265 69.1827 99.6505 69.1069C99.5745 69.0311 99.5365 68.9427 99.5365 68.8354V65.4067C99.5365 65.2804 99.5809 65.1794 99.6695 65.0973C99.7582 65.0152 99.8595 64.971 99.9798 64.971H101.842C101.962 64.971 102.063 65.0152 102.152 65.0973C102.24 65.1794 102.285 65.2867 102.285 65.4067V68.7786C102.285 68.9048 102.24 69.0059 102.152 69.088C102.063 69.17 101.962 69.2142 101.842 69.2142H101.639C101.607 69.2142 101.588 69.2332 101.588 69.2711V70.736C101.588 70.8181 101.595 70.8749 101.614 70.9002C101.633 70.9254 101.633 70.9254 101.683 70.9254ZM96.9403 66.0255C96.8833 66.0823 96.8073 66.1076 96.725 66.1076C96.6427 66.1076 96.573 66.0823 96.516 66.0255C96.459 65.9687 96.4337 65.8992 96.4337 65.8171V65.7161C96.4337 65.6845 96.4147 65.6656 96.3831 65.6656H95.9145C95.8448 65.6656 95.7878 65.6403 95.7372 65.5898C95.6865 65.5393 95.6612 65.4825 95.6612 65.413C95.6612 65.3436 95.6865 65.2867 95.7372 65.2362C95.7878 65.1857 95.8448 65.1604 95.9145 65.1604H96.3831C96.4147 65.1604 96.4337 65.1415 96.4337 65.1099V65.0026C96.4337 64.9268 96.459 64.8574 96.516 64.7942C96.573 64.7311 96.6427 64.7058 96.725 64.7058C96.8073 64.7058 96.8833 64.7374 96.9403 64.7942C96.9973 64.851 97.0289 64.9205 97.0289 65.0026V65.1036C97.0289 65.1352 97.0416 65.1541 97.0733 65.1541H97.8838C97.9155 65.1541 97.9345 65.1352 97.9345 65.1036V65.0026C97.9345 64.9268 97.9661 64.8574 98.0231 64.7942C98.0801 64.7311 98.1561 64.7058 98.2384 64.7058C98.3207 64.7058 98.3904 64.7374 98.4474 64.7942C98.5044 64.851 98.5297 64.9205 98.5297 65.0026V65.1036C98.5297 65.1352 98.5487 65.1541 98.5804 65.1541H99.011C99.0806 65.1541 99.1376 65.1794 99.1883 65.2299C99.2389 65.2804 99.2643 65.3372 99.2643 65.4067C99.2643 65.4762 99.2389 65.533 99.1883 65.5835C99.1376 65.634 99.0806 65.6593 99.011 65.6593H98.5804C98.5487 65.6593 98.5297 65.6782 98.5297 65.7098V65.8108C98.5297 65.8929 98.5044 65.9624 98.4474 66.0192C98.3904 66.076 98.3207 66.1013 98.2384 66.1013C98.1561 66.1013 98.0801 66.076 98.0231 66.0192C97.9661 65.9624 97.9345 65.8929 97.9345 65.8108V65.7098C97.9345 65.6782 97.9155 65.6593 97.8838 65.6593H97.0733C97.0416 65.6593 97.0289 65.6782 97.0289 65.7098V65.8108C97.0289 65.8992 96.9973 65.9687 96.9403 66.0255ZM96.3514 66.6948C96.3134 66.6948 96.2944 66.7138 96.2944 66.7517V67.1747C96.2944 67.2126 96.3134 67.2315 96.3514 67.2315H96.7693C96.8073 67.2315 96.8263 67.2126 96.8263 67.1747V66.7517C96.8263 66.7138 96.8073 66.6948 96.7693 66.6948H96.3514ZM97.3266 69.1006C97.3646 69.1006 97.3836 69.0816 97.3836 69.0438V68.7849C97.3836 68.7533 97.3646 68.7344 97.3266 68.7344H96.7377C96.6997 68.7344 96.6807 68.7533 96.6807 68.7849V69.0438C96.6807 69.0816 96.6997 69.1006 96.7377 69.1006H97.3266ZM97.3266 69.9151C97.3646 69.9151 97.3836 69.8962 97.3836 69.8646V69.5994C97.3836 69.5615 97.3646 69.5426 97.3266 69.5426H96.7377C96.6997 69.5426 96.6807 69.5615 96.6807 69.5994V69.8646C96.6807 69.8962 96.6997 69.9151 96.7377 69.9151H97.3266ZM96.7377 70.3571C96.6997 70.3571 96.6807 70.3761 96.6807 70.4077V70.6792C96.6807 70.7107 96.6997 70.7297 96.7377 70.7297H97.3266C97.3646 70.7297 97.3836 70.7107 97.3836 70.6792V70.4077C97.3836 70.3761 97.3646 70.3571 97.3266 70.3571H96.7377ZM98.1498 66.6948C98.1181 66.6948 98.0991 66.7138 98.0991 66.7517V67.1747C98.0991 67.2126 98.1181 67.2315 98.1498 67.2315H98.612C98.65 67.2315 98.669 67.2126 98.669 67.1747V66.7517C98.669 66.7138 98.65 66.6948 98.612 66.6948H98.1498ZM100.182 65.5709C100.144 65.5709 100.125 65.5898 100.125 65.6214V66.1455C100.125 66.1834 100.144 66.2023 100.182 66.2023H101.563C101.595 66.2023 101.614 66.1834 101.614 66.1455V65.6214C101.614 65.5898 101.595 65.5709 101.563 65.5709H100.182ZM100.182 66.7453C100.144 66.7453 100.125 66.7643 100.125 66.8022V67.3326C100.125 67.3641 100.144 67.3831 100.182 67.3831H101.563C101.595 67.3831 101.614 67.3641 101.614 67.3326V66.8022C101.614 66.7643 101.595 66.7453 101.563 66.7453H100.182ZM100.182 67.9387C100.144 67.9387 100.125 67.9577 100.125 67.9956V68.526C100.125 68.5576 100.144 68.5765 100.182 68.5765H101.563C101.595 68.5765 101.614 68.5576 101.614 68.526V67.9956C101.614 67.9577 101.595 67.9387 101.563 67.9387H100.182Z" fill="#769763"/>
<path d="M113.157 70.9508H114.018C114.145 70.9508 114.227 70.8939 114.265 70.7866C114.303 70.6792 114.341 70.4393 114.36 70.0794C114.367 70.0036 114.405 69.9405 114.474 69.9026C114.544 69.8647 114.614 69.8584 114.69 69.8963C114.791 69.9405 114.867 70.0099 114.93 70.0983C114.981 70.1741 115.006 70.2499 115.006 70.3383C115.006 70.3509 115.006 70.3698 115.006 70.3825C114.956 70.8687 114.867 71.1907 114.74 71.3612C114.614 71.5317 114.392 71.6138 114.088 71.6138H113.081C112.708 71.6138 112.461 71.5443 112.334 71.4117C112.207 71.2791 112.144 71.0265 112.144 70.6477V68.2103C112.144 68.1788 112.125 68.1598 112.087 68.1598H110.947C110.916 68.1598 110.89 68.1788 110.89 68.2103C110.859 68.5387 110.821 68.8228 110.776 69.0628C110.732 69.3027 110.656 69.5553 110.561 69.8142C110.466 70.0731 110.346 70.2941 110.2 70.4898C110.054 70.6856 109.871 70.8687 109.636 71.0392C109.402 71.2096 109.13 71.3675 108.82 71.4938C108.769 71.5127 108.718 71.5254 108.674 71.5254C108.63 71.5254 108.573 71.5127 108.528 71.4938C108.427 71.4622 108.345 71.3928 108.275 71.3044C108.243 71.2538 108.224 71.2033 108.224 71.1465C108.224 71.1212 108.224 71.096 108.231 71.0707C108.256 70.9886 108.307 70.9255 108.389 70.8939C108.661 70.7929 108.896 70.6666 109.098 70.5214C109.301 70.3762 109.459 70.2246 109.579 70.0731C109.7 69.9215 109.801 69.7384 109.877 69.5237C109.953 69.309 110.016 69.107 110.054 68.9112C110.092 68.7155 110.124 68.4819 110.149 68.2103C110.156 68.1788 110.137 68.1598 110.099 68.1598H108.547C108.452 68.1598 108.37 68.1283 108.307 68.0588C108.243 67.9893 108.205 67.9136 108.205 67.8189C108.205 67.7241 108.237 67.6484 108.307 67.5789C108.376 67.5094 108.452 67.4842 108.547 67.4842H111.137C111.175 67.4842 111.194 67.4653 111.194 67.4274V65.0279C111.194 64.9269 111.226 64.8448 111.296 64.7753C111.365 64.7059 111.447 64.6743 111.549 64.6743C111.65 64.6743 111.732 64.7059 111.802 64.7753C111.872 64.8448 111.903 64.9269 111.903 65.0279V67.4274C111.903 67.4653 111.922 67.4842 111.96 67.4842H114.607C114.702 67.4842 114.785 67.5158 114.848 67.5789C114.911 67.642 114.949 67.7241 114.949 67.8189C114.949 67.9136 114.918 67.9957 114.848 68.0588C114.778 68.1219 114.702 68.1598 114.607 68.1598H112.923C112.885 68.1598 112.866 68.1788 112.866 68.2103V70.6477C112.866 70.774 112.885 70.8497 112.923 70.8939C112.961 70.9381 113.024 70.9508 113.157 70.9508ZM110.181 66.5118C110.194 66.5497 110.206 66.5939 110.206 66.6381C110.206 66.6949 110.194 66.7454 110.168 66.7959C110.124 66.8906 110.054 66.9538 109.953 66.998C109.915 67.0106 109.877 67.0232 109.833 67.0232C109.782 67.0232 109.731 67.0106 109.687 66.9854C109.598 66.9412 109.535 66.8717 109.503 66.777C109.364 66.3981 109.174 65.9877 108.94 65.5583C108.915 65.5141 108.902 65.4699 108.902 65.4257C108.902 65.3942 108.908 65.3563 108.915 65.3247C108.946 65.2426 109.003 65.1858 109.086 65.1542C109.136 65.1353 109.187 65.1226 109.231 65.1226C109.275 65.1226 109.32 65.1289 109.364 65.1479C109.459 65.1795 109.535 65.2426 109.586 65.3247C109.845 65.7414 110.042 66.1392 110.181 66.5118ZM113.537 65.3121C113.581 65.211 113.651 65.1416 113.746 65.0974C113.803 65.0658 113.854 65.0532 113.911 65.0532C113.955 65.0532 113.999 65.0658 114.044 65.0847C114.145 65.1163 114.215 65.1858 114.253 65.2742C114.272 65.3184 114.284 65.3626 114.284 65.4068C114.284 65.4636 114.272 65.5141 114.246 65.5646C113.999 66.0572 113.771 66.4802 113.556 66.8212C113.505 66.897 113.436 66.9538 113.341 66.9854C113.303 66.998 113.259 66.998 113.214 66.998C113.17 66.998 113.126 66.9917 113.075 66.9727C112.999 66.9412 112.942 66.8843 112.91 66.8022C112.898 66.7707 112.898 66.7454 112.898 66.7138C112.898 66.6633 112.91 66.6191 112.936 66.5749C113.157 66.1645 113.36 65.7478 113.537 65.3121Z" fill="#769763"/>
<path d="M122.789 67.9705C122.82 67.9642 122.846 67.9642 122.871 67.9642C122.928 67.9642 122.979 67.9768 123.029 68.0084C123.105 68.0589 123.143 68.122 123.156 68.2104C123.162 68.2294 123.162 68.2483 123.162 68.2672C123.162 68.3367 123.143 68.3999 123.105 68.4693C123.048 68.5451 122.979 68.6019 122.89 68.6272L122.314 68.7977C122.276 68.8103 122.257 68.8292 122.257 68.8671V70.8498C122.257 71.0392 122.238 71.1845 122.194 71.2855C122.149 71.3865 122.073 71.4623 121.966 71.5128C121.807 71.5886 121.567 71.6265 121.237 71.6391H121.231C121.136 71.6391 121.054 71.6075 120.978 71.5507C120.902 71.4876 120.845 71.4055 120.813 71.3044C120.788 71.2287 120.8 71.1592 120.845 71.0961C120.889 71.0329 120.952 71.0014 121.028 71.0014C121.098 71.0077 121.161 71.0077 121.212 71.0077C121.301 71.0077 121.37 71.0077 121.415 71.0014C121.472 71.0014 121.503 70.9887 121.529 70.9698C121.554 70.9508 121.56 70.913 121.56 70.8498V69.0755C121.56 69.0629 121.554 69.0502 121.548 69.0439C121.541 69.0376 121.522 69.0376 121.51 69.0376C121.358 69.0818 121.18 69.1323 120.984 69.1828C120.952 69.1955 120.921 69.1955 120.889 69.1955C120.832 69.1955 120.775 69.1765 120.718 69.1449C120.636 69.0944 120.579 69.025 120.553 68.9303C120.541 68.8987 120.541 68.8734 120.541 68.8419C120.541 68.785 120.56 68.7219 120.591 68.6651C120.642 68.5893 120.712 68.5324 120.807 68.5072C121.104 68.4377 121.339 68.3809 121.51 68.3304C121.541 68.3178 121.56 68.2988 121.56 68.2609V66.8655C121.56 66.8339 121.541 66.8149 121.51 66.8149H120.895C120.807 66.8149 120.731 66.7834 120.667 66.7202C120.604 66.6571 120.572 66.5813 120.572 66.4866C120.572 66.3919 120.604 66.3161 120.667 66.2593C120.731 66.2025 120.807 66.1646 120.895 66.1646H121.51C121.541 66.1646 121.56 66.1456 121.56 66.1077V65.0406C121.56 64.9396 121.592 64.8575 121.662 64.7944C121.731 64.7312 121.814 64.6933 121.909 64.6933C122.004 64.6933 122.086 64.7249 122.156 64.7944C122.225 64.8638 122.257 64.9459 122.257 65.0406V66.1077C122.257 66.1456 122.276 66.1646 122.314 66.1646H122.757C122.846 66.1646 122.922 66.1961 122.985 66.2593C123.048 66.3224 123.08 66.3982 123.08 66.4866C123.08 66.575 123.048 66.6571 122.985 66.7202C122.922 66.7834 122.846 66.8149 122.757 66.8149H122.314C122.276 66.8149 122.257 66.8339 122.257 66.8655V68.0652C122.257 68.0778 122.263 68.0904 122.276 68.1031C122.288 68.1157 122.301 68.1157 122.314 68.1094C122.58 68.0273 122.744 67.9831 122.789 67.9705ZM123.859 71.6265C123.764 71.6265 123.682 71.5949 123.618 71.5254C123.555 71.456 123.517 71.3802 123.517 71.2918V68.7156C123.517 68.5956 123.561 68.4946 123.65 68.4062C123.739 68.3178 123.84 68.2736 123.96 68.2736H126.689C126.81 68.2736 126.911 68.3178 127 68.4062C127.088 68.4946 127.133 68.5956 127.133 68.7156V71.2413C127.133 71.336 127.101 71.4181 127.031 71.4876C126.962 71.557 126.879 71.5886 126.784 71.5886H126.702C126.626 71.5886 126.563 71.5633 126.512 71.5065C126.462 71.4497 126.436 71.3865 126.436 71.3171C126.436 71.2981 126.424 71.2855 126.398 71.2855H124.239C124.214 71.2855 124.201 71.2981 124.201 71.3234C124.201 71.4055 124.169 71.4813 124.112 71.5381C124.055 71.5949 123.979 71.6265 123.897 71.6265H123.859ZM124.777 67.1054H126.316C126.487 67.1054 126.601 67.0675 126.664 66.9917C126.727 66.916 126.772 66.7644 126.797 66.5308C126.81 66.455 126.848 66.3919 126.917 66.354C126.987 66.3161 127.063 66.3098 127.139 66.3351C127.234 66.3729 127.31 66.4361 127.361 66.5182C127.405 66.5813 127.43 66.6508 127.43 66.7265C127.43 66.7455 127.43 66.7644 127.43 66.7834C127.373 67.1496 127.266 67.3959 127.12 67.5285C126.974 67.6611 126.721 67.7305 126.36 67.7305H124.726C124.258 67.7305 123.941 67.6674 123.777 67.5348C123.612 67.4022 123.53 67.1559 123.53 66.7834V65.0343C123.53 64.9396 123.561 64.8575 123.631 64.788C123.701 64.7186 123.777 64.687 123.878 64.687C123.979 64.687 124.055 64.7186 124.125 64.788C124.195 64.8575 124.226 64.9396 124.226 65.0343V65.6973C124.226 65.7289 124.245 65.7478 124.277 65.7415C125.005 65.5773 125.626 65.4005 126.139 65.1985C126.208 65.1732 126.278 65.1606 126.348 65.1606C126.386 65.1606 126.424 65.1606 126.462 65.1669C126.569 65.1858 126.664 65.2364 126.746 65.3121C126.797 65.3627 126.822 65.4132 126.822 65.4763C126.822 65.4952 126.822 65.5142 126.816 65.5268C126.803 65.6152 126.753 65.6721 126.67 65.6973C126.025 65.9246 125.233 66.1267 124.29 66.3035C124.258 66.3098 124.239 66.3287 124.239 66.3729V66.7707C124.239 66.897 124.271 66.9854 124.34 67.0233C124.41 67.0612 124.549 67.1054 124.777 67.1054ZM126.43 68.9239C126.43 68.8861 126.411 68.8671 126.373 68.8671H124.252C124.22 68.8671 124.201 68.8861 124.201 68.9239V69.448C124.201 69.4796 124.22 69.4985 124.252 69.4985H126.373C126.411 69.4985 126.43 69.4796 126.43 69.448V68.9239ZM124.195 70.6541C124.195 70.692 124.214 70.7109 124.245 70.7109H126.367C126.405 70.7109 126.424 70.692 126.424 70.6541V70.1047C126.424 70.0731 126.405 70.0542 126.367 70.0542H124.245C124.214 70.0542 124.195 70.0731 124.195 70.1047V70.6541Z" fill="#769763"/>
<path d="M139.684 65.4762C139.747 65.5394 139.779 65.6151 139.779 65.7099C139.779 65.8046 139.747 65.8803 139.684 65.9435C139.62 66.0066 139.544 66.0382 139.456 66.0382H136.815C136.783 66.0382 136.758 66.0571 136.758 66.095C136.733 66.2718 136.701 66.4676 136.669 66.6696C136.663 66.7012 136.682 66.7201 136.714 66.7201H139.006C139.133 66.7201 139.234 66.7643 139.316 66.8527C139.399 66.9411 139.443 67.0422 139.443 67.1622V70.856C139.443 71.0455 139.418 71.197 139.361 71.2917C139.304 71.3864 139.215 71.4622 139.076 71.5127C138.905 71.5822 138.576 71.6138 138.094 71.6138C137.999 71.6138 137.911 71.5885 137.835 71.5317C137.759 71.4748 137.702 71.3991 137.664 71.3044C137.632 71.2349 137.638 71.1718 137.676 71.1086C137.714 71.0455 137.771 71.0202 137.847 71.0265C137.974 71.0265 138.082 71.0265 138.183 71.0265C138.329 71.0265 138.449 71.0265 138.544 71.0202C138.607 71.0202 138.652 71.0076 138.677 70.9886C138.702 70.9697 138.715 70.9255 138.715 70.856V67.44C138.715 67.4021 138.696 67.3832 138.664 67.3832H134.257C134.225 67.3832 134.206 67.4021 134.206 67.44V71.2665C134.206 71.3675 134.175 71.4496 134.105 71.519C134.035 71.5885 133.953 71.6201 133.858 71.6201C133.763 71.6201 133.681 71.5885 133.611 71.519C133.541 71.4496 133.51 71.3675 133.51 71.2665V67.1685C133.51 67.0485 133.554 66.9475 133.636 66.8591C133.719 66.7707 133.826 66.7265 133.947 66.7265H135.922C135.954 66.7265 135.979 66.7075 135.979 66.6759C135.986 66.6444 135.998 66.5623 136.011 66.4234C136.024 66.2845 136.043 66.1771 136.049 66.095C136.055 66.0571 136.036 66.0382 135.998 66.0382H133.478C133.389 66.0382 133.313 66.0066 133.25 65.9435C133.187 65.8803 133.155 65.8046 133.155 65.7099C133.155 65.6151 133.187 65.5394 133.25 65.4762C133.313 65.4131 133.389 65.3815 133.478 65.3815H136.068C136.106 65.3815 136.131 65.3626 136.138 65.331C136.144 65.2426 136.15 65.1542 136.15 65.0658C136.163 64.9648 136.207 64.8764 136.283 64.8069C136.353 64.7501 136.429 64.7185 136.524 64.7185C136.536 64.7185 136.549 64.7185 136.562 64.7185C136.669 64.7311 136.758 64.7753 136.821 64.8574C136.878 64.9269 136.904 65.0027 136.904 65.0847C136.904 65.0974 136.904 65.1163 136.904 65.1353C136.891 65.1858 136.885 65.2489 136.872 65.3247C136.866 65.3563 136.885 65.3752 136.923 65.3752H139.462C139.544 65.3752 139.62 65.4131 139.684 65.4762ZM138.272 69.7195C138.329 69.7763 138.354 69.8394 138.354 69.9215C138.354 70.0036 138.329 70.0667 138.272 70.1236C138.215 70.1804 138.151 70.2057 138.075 70.2057H136.828C136.796 70.2057 136.777 70.2246 136.777 70.2625V71.1149C136.777 71.2096 136.745 71.2854 136.682 71.3549C136.619 71.4243 136.537 71.4496 136.442 71.4496C136.347 71.4496 136.271 71.418 136.201 71.3549C136.131 71.2917 136.106 71.2096 136.106 71.1149V70.2625C136.106 70.2246 136.087 70.2057 136.049 70.2057H134.858C134.782 70.2057 134.719 70.1804 134.662 70.1236C134.605 70.0667 134.58 70.0036 134.58 69.9215C134.58 69.8394 134.605 69.7763 134.662 69.7195C134.719 69.6626 134.782 69.6374 134.858 69.6374H136.049C136.087 69.6374 136.106 69.6184 136.106 69.5805V69.0438C136.106 69.0123 136.087 68.9933 136.049 68.9933H135.017C134.941 68.9933 134.871 68.9681 134.82 68.9112C134.77 68.8544 134.744 68.7913 134.744 68.7155C134.744 68.6397 134.77 68.5766 134.82 68.5197C134.871 68.4629 134.941 68.4376 135.017 68.4376H135.378C135.39 68.4376 135.403 68.4313 135.416 68.4187C135.428 68.4061 135.428 68.3934 135.422 68.3808C135.378 68.223 135.308 68.0462 135.213 67.8504C135.181 67.7873 135.175 67.7178 135.207 67.6547C135.238 67.5915 135.283 67.5473 135.352 67.5221C135.384 67.5158 135.422 67.5158 135.447 67.5158C135.498 67.5158 135.549 67.5284 135.593 67.5473C135.669 67.5789 135.726 67.6294 135.764 67.7052C135.808 67.7936 135.853 67.882 135.891 67.9704C135.91 68.0146 135.922 68.0588 135.922 68.103C135.922 68.1535 135.91 68.1977 135.884 68.2419C135.84 68.3366 135.764 68.3998 135.663 68.425C135.663 68.4376 135.663 68.4376 135.669 68.4376H136.809C136.84 68.4376 136.866 68.4187 136.885 68.3871C136.986 68.1598 137.068 67.9451 137.138 67.7431C137.17 67.6547 137.22 67.5852 137.303 67.541C137.36 67.5094 137.417 67.4905 137.474 67.4905C137.499 67.4905 137.524 67.4905 137.55 67.4968C137.632 67.5158 137.695 67.5663 137.733 67.6357C137.752 67.6799 137.765 67.7241 137.765 67.762C137.765 67.7936 137.759 67.8315 137.74 67.863C137.645 68.0777 137.569 68.2545 137.499 68.3808C137.493 68.3934 137.493 68.3998 137.505 68.4124C137.518 68.425 137.524 68.4313 137.537 68.4313H137.923C137.999 68.4313 138.069 68.4566 138.126 68.5134C138.183 68.5703 138.208 68.6334 138.208 68.7092C138.208 68.7849 138.183 68.8481 138.126 68.9049C138.069 68.9617 138.006 68.987 137.923 68.987H136.815C136.783 68.987 136.764 69.0059 136.764 69.0375V69.5805C136.764 69.6184 136.783 69.6374 136.815 69.6374H138.063C138.145 69.6374 138.215 69.6689 138.272 69.7195Z" fill="#769763"/>
</svg>
