<svg width="16" height="16" viewBox="0 0 16 16" fill="none" xmlns="http://www.w3.org/2000/svg">
<path fill-rule="evenodd" clip-rule="evenodd" d="M11.2443 10.1741L15.2793 14.2091C15.4211 14.351 15.5008 14.5434 15.5007 14.7441C15.5006 14.9447 15.4209 15.1371 15.2789 15.2789C15.137 15.4208 14.9446 15.5004 14.7439 15.5003C14.5433 15.5003 14.3509 15.4205 14.2091 15.2786L10.1741 11.2436C8.96784 12.1778 7.45102 12.6175 5.93215 12.4731C4.41329 12.3287 3.00648 11.6111 1.99792 10.4663C0.989358 9.32145 0.454801 7.83542 0.502997 6.31047C0.551193 4.78552 1.17852 3.3362 2.25736 2.25736C3.3362 1.17852 4.78552 0.551193 6.31047 0.502997C7.83542 0.454801 9.32145 0.989358 10.4663 1.99792C11.6111 3.00648 12.3287 4.41329 12.4731 5.93215C12.6175 7.45102 12.1778 8.96784 11.2436 10.1741H11.2443ZM6.50056 10.9998C7.69403 10.9998 8.83862 10.5257 9.68254 9.68179C10.5265 8.83788 11.0006 7.69328 11.0006 6.49981C11.0006 5.30633 10.5265 4.16174 9.68254 3.31783C8.83862 2.47391 7.69403 1.99981 6.50056 1.99981C5.30708 1.99981 4.16249 2.47391 3.31858 3.31783C2.47466 4.16174 2.00056 5.30633 2.00056 6.49981C2.00056 7.69328 2.47466 8.83788 3.31858 9.68179C4.16249 10.5257 5.30708 10.9998 6.50056 10.9998Z" fill="white"/>
</svg>
