<svg width="24" height="24" viewBox="0 0 24 24" fill="none" xmlns="http://www.w3.org/2000/svg">
<path d="M10.9013 6.62724L10.9028 6.62871L11.5687 7.29316L11.9934 7.71696L12.4172 7.29221L13.0715 6.6365C13.0717 6.63627 13.0719 6.63604 13.0722 6.63581C13.4603 6.24955 13.9207 5.94351 14.4271 5.73517C14.9338 5.5267 15.4766 5.42014 16.0245 5.42157C16.5724 5.423 17.1147 5.53239 17.6203 5.7435C18.1259 5.9546 18.585 6.26328 18.9712 6.65188L18.9712 6.65189L18.9734 6.65408C19.756 7.43339 20.1973 8.49154 20.2002 9.59601C20.2031 10.7001 19.7676 11.7603 18.9895 12.5436C18.9893 12.5438 18.989 12.5441 18.9888 12.5443L12.1213 19.4074L12.1213 19.4074C12.0963 19.4324 12.0623 19.4465 12.027 19.4465C11.9916 19.4465 11.9578 19.4325 11.9328 19.4075C11.9327 19.4075 11.9327 19.4075 11.9327 19.4075C11.9327 19.4074 11.9327 19.4074 11.9327 19.4074L5.02868 12.502L5.02763 12.5009C4.24459 11.7216 3.80309 10.6631 3.80021 9.55836C3.79733 8.45415 4.23283 7.39396 5.01103 6.61064C5.79435 5.83244 6.85454 5.39694 7.95875 5.39982C9.06353 5.4027 10.122 5.8442 10.9013 6.62724Z" stroke="white" stroke-width="1.2"/>
</svg>
