<svg width="44" height="44" viewBox="0 0 44 44" fill="none" xmlns="http://www.w3.org/2000/svg">
<path d="M22.5234 11.5234C28.5886 11.5234 33.5234 15.7257 33.5234 20.892C33.5234 22.9599 32.7603 24.8215 31.1653 26.6557C28.8581 29.4437 23.6977 32.8393 22.5234 33.3588C21.3822 33.8639 21.5142 33.0745 21.5664 32.7628L21.5706 32.7368L21.7273 31.7483C21.7644 31.4539 21.8029 30.9965 21.6916 30.705C21.5678 30.3831 21.0811 30.2157 20.7236 30.1349C15.4367 29.4033 11.5234 25.5228 11.5234 20.892C11.5234 15.7257 16.4597 11.5234 22.5234 11.5234ZM18.4287 22.615H16.3318V18.6205C16.3318 18.5611 16.3094 18.504 16.2695 18.4619C16.2295 18.4197 16.1753 18.3958 16.1187 18.3954H15.3459C15.3178 18.3954 15.2899 18.4012 15.2639 18.4126C15.2378 18.4239 15.2142 18.4405 15.1943 18.4614C15.1743 18.4823 15.1585 18.5071 15.1478 18.5344C15.137 18.5617 15.1314 18.591 15.1314 18.6205V23.6511C15.1314 23.7103 15.1548 23.7666 15.1919 23.8056V23.807L15.1947 23.8099L15.1974 23.8128C15.2373 23.853 15.2906 23.8753 15.3459 23.8748H18.4287C18.5469 23.8748 18.6418 23.7738 18.6418 23.6497V22.8416C18.642 22.812 18.6366 22.7827 18.626 22.7553C18.6154 22.7279 18.5998 22.703 18.58 22.682C18.5602 22.6609 18.5366 22.6442 18.5107 22.6327C18.4847 22.6212 18.4569 22.6152 18.4287 22.615ZM19.5163 18.3954C19.4594 18.3954 19.4049 18.4191 19.3646 18.4614C19.3244 18.5036 19.3018 18.5608 19.3018 18.6205V23.6511C19.3018 23.7752 19.3981 23.8748 19.5163 23.8748H20.2891C20.4073 23.8748 20.5022 23.7738 20.5022 23.6511V18.6205C20.5022 18.5611 20.4798 18.504 20.4398 18.4619C20.3999 18.4197 20.3457 18.3958 20.2891 18.3954H19.5163ZM24.8279 18.3954C24.771 18.3954 24.7165 18.4191 24.6763 18.4614C24.636 18.5036 24.6134 18.5608 24.6134 18.6205V21.6077L22.4176 18.4964C22.412 18.4889 22.406 18.4816 22.3997 18.4748V18.4733C22.3953 18.4683 22.3908 18.4635 22.3859 18.4589L22.3818 18.4546C22.3771 18.4499 22.372 18.4455 22.3667 18.4416H22.3653L22.3584 18.4358L22.3543 18.4329C22.3522 18.4313 22.3499 18.4298 22.3474 18.4286L22.3364 18.4214H22.3337L22.3296 18.4185L22.3158 18.4127L22.3103 18.4098C22.3058 18.4081 22.3012 18.4067 22.2966 18.4055H22.2938L22.2897 18.4041L22.2773 18.4012H22.2691L22.2649 18.3997H22.2594L22.2567 18.3983H21.4674C21.4108 18.3983 21.3564 18.4218 21.3162 18.4637C21.2761 18.5056 21.2533 18.5625 21.2529 18.622V23.6526C21.2529 23.7767 21.3492 23.8763 21.4674 23.8763H22.2374C22.3571 23.8763 22.4533 23.7752 22.4533 23.6526V20.6654L24.6533 23.7825C24.6679 23.8039 24.6861 23.8225 24.7069 23.8373L24.7083 23.8387L24.7221 23.8474L24.7276 23.8503C24.7311 23.8525 24.7348 23.8544 24.7386 23.8561L24.7482 23.8604L24.7551 23.8633C24.7596 23.8649 24.7642 23.8663 24.7688 23.8676H24.7729C24.7908 23.873 24.8093 23.8759 24.8279 23.8763H25.5979C25.7176 23.8763 25.8138 23.7752 25.8138 23.6526V18.6205C25.8138 18.5608 25.7912 18.5036 25.751 18.4614C25.7108 18.4191 25.6562 18.3954 25.5993 18.3954H24.8279ZM30.0736 19.4301V18.622C30.0737 18.5924 30.0684 18.5631 30.0578 18.5357C30.0471 18.5083 30.0315 18.4834 30.0117 18.4624C29.9919 18.4413 29.9684 18.4246 29.9424 18.4131C29.9165 18.4016 29.8886 18.3956 29.8604 18.3954H26.7777C26.7222 18.3955 26.6689 18.4183 26.6292 18.4589H26.6278L26.6264 18.4618L26.6237 18.4661C26.5853 18.5075 26.5636 18.5628 26.5632 18.6205V23.6511C26.5632 23.7103 26.5866 23.7666 26.6237 23.8056L26.6264 23.8099L26.6292 23.8128C26.6691 23.8529 26.7224 23.8751 26.7777 23.8748H29.8604C29.9787 23.8748 30.0736 23.7738 30.0736 23.6497V22.8416C30.0737 22.812 30.0684 22.7827 30.0578 22.7553C30.0471 22.7279 30.0315 22.703 30.0117 22.682C29.9919 22.6609 29.9684 22.6442 29.9424 22.6327C29.9165 22.6212 29.8886 22.6152 29.8604 22.615H27.7622V21.765H29.8591C29.9773 21.765 30.0722 21.664 30.0722 21.5399V20.7318C30.0724 20.7022 30.067 20.6729 30.0564 20.6455C30.0458 20.6181 30.0301 20.5932 30.0103 20.5722C29.9905 20.5511 29.967 20.5344 29.941 20.5229C29.9151 20.5114 29.8872 20.5054 29.8591 20.5052H27.7622V19.6552H29.8591C29.9773 19.6552 30.0722 19.5542 30.0722 19.4301H30.0736Z" fill="#ACACAC"/>
</svg>
