<svg width="24" height="24" viewBox="0 0 24 24" fill="none" xmlns="http://www.w3.org/2000/svg">
<path d="M14.0543 7.37272C14.0543 6.76404 14.27 6.17505 14.6633 5.71045C15.0565 5.24584 15.6017 4.9357 16.2021 4.83516C16.8024 4.73461 17.4189 4.85016 17.9421 5.16128C18.4652 5.4724 18.8611 5.95893 19.0594 6.5344C19.2577 7.10988 19.2456 7.73702 19.0251 8.30438C18.8047 8.87173 18.3902 9.34255 17.8554 9.63315C17.3205 9.92376 16.7 10.0153 16.104 9.89158C15.508 9.76783 14.9753 9.43679 14.6003 8.95729L9.8538 11.3306C9.97093 11.7674 9.97093 12.2274 9.8538 12.6642L14.6024 15.0395C14.9959 14.5386 15.5615 14.2016 16.1894 14.0939C16.8173 13.9862 17.4628 14.1155 18.0007 14.4567C18.5387 14.798 18.9308 15.3268 19.1011 15.9407C19.2713 16.5545 19.2076 17.2098 18.9222 17.7793C18.6367 18.3489 18.15 18.7922 17.5563 19.0232C16.9627 19.2543 16.3043 19.2567 15.709 19.03C15.1137 18.8033 14.6237 18.3636 14.3341 17.7961C14.0445 17.2287 13.976 16.5739 14.1417 15.9588L9.39313 13.5835C9.06306 14.0043 8.60998 14.3116 8.097 14.4628C7.58401 14.6139 7.03667 14.6013 6.53119 14.4267C6.02571 14.2521 5.58727 13.9242 5.27693 13.4887C4.96659 13.0531 4.7998 12.5317 4.7998 11.9969C4.7998 11.4621 4.96659 10.9406 5.27693 10.5051C5.58727 10.0696 6.02571 9.74166 6.53119 9.56706C7.03667 9.39246 7.58401 9.37985 8.097 9.53098C8.60998 9.68212 9.06306 9.98948 9.39313 10.4102L14.1407 8.03801C14.083 7.82096 14.054 7.5973 14.0543 7.37272ZM16.6271 5.82825C16.2176 5.82825 15.8249 5.99091 15.5353 6.28046C15.2458 6.57001 15.0831 6.96272 15.0831 7.3722C15.0831 7.78169 15.2458 8.1744 15.5353 8.46395C15.8249 8.7535 16.2176 8.91616 16.6271 8.91616C17.0365 8.91616 17.4293 8.7535 17.7188 8.46395C18.0083 8.1744 18.171 7.78169 18.171 7.3722C18.171 6.96272 18.0083 6.57001 17.7188 6.28046C17.4293 5.99091 17.0365 5.82825 16.6271 5.82825ZM16.625 15.0827C16.2159 15.0827 15.8236 15.2452 15.5343 15.5345C15.2451 15.8238 15.0826 16.2161 15.0826 16.6252C15.0826 17.0342 15.2451 17.4265 15.5343 17.7158C15.8236 18.0051 16.2159 18.1676 16.625 18.1676C17.0341 18.1676 17.4264 18.0051 17.7157 17.7158C18.0049 17.4265 18.1674 17.0342 18.1674 16.6252C18.1674 16.2161 18.0049 15.8238 17.7157 15.5345C17.4264 15.2452 17.0341 15.0827 16.625 15.0827ZM5.8281 11.9979C5.8281 12.2005 5.86799 12.401 5.94551 12.5882C6.02302 12.7753 6.13663 12.9453 6.27986 13.0886C6.42309 13.2318 6.59312 13.3454 6.78026 13.4229C6.96739 13.5004 7.16796 13.5403 7.37051 13.5403C7.57307 13.5403 7.77363 13.5004 7.96077 13.4229C8.1479 13.3454 8.31794 13.2318 8.46116 13.0886C8.60439 12.9453 8.718 12.7753 8.79552 12.5882C8.87303 12.401 8.91293 12.2005 8.91293 11.9979C8.91293 11.5888 8.75042 11.1965 8.46116 10.9073C8.17191 10.618 7.77959 10.4555 7.37051 10.4555C6.96144 10.4555 6.56912 10.618 6.27986 10.9073C5.9906 11.1965 5.8281 11.5888 5.8281 11.9979Z" fill="#ACACAC"/>
</svg>
