<svg width="24" height="24" viewBox="0 0 24 24" fill="none" xmlns="http://www.w3.org/2000/svg">
<path fill-rule="evenodd" clip-rule="evenodd" d="M18.1653 5.83441C18.4777 6.14683 18.4777 6.65336 18.1653 6.96578L6.96529 18.1658C6.65288 18.4782 6.14634 18.4782 5.83392 18.1658C5.5215 17.8534 5.5215 17.3468 5.83392 17.0344L17.0339 5.83441C17.3463 5.52199 17.8529 5.52199 18.1653 5.83441Z" fill="white"/>
<path fill-rule="evenodd" clip-rule="evenodd" d="M18.1651 18.1658C17.8527 18.4782 17.3461 18.4782 17.0337 18.1658L5.83373 6.96578C5.52131 6.65336 5.52131 6.14683 5.83373 5.83441C6.14615 5.52199 6.65268 5.52199 6.9651 5.83441L18.1651 17.0344C18.4775 17.3468 18.4775 17.8534 18.1651 18.1658Z" fill="white"/>
</svg>
