<svg width="24" height="24" viewBox="0 0 24 24" fill="none" xmlns="http://www.w3.org/2000/svg">
<path d="M10.9008 6.62724L10.9023 6.62871L11.5682 7.29316L11.9929 7.71696L12.4167 7.29221L13.071 6.6365C13.0712 6.63627 13.0715 6.63604 13.0717 6.63581C13.4598 6.24955 13.9202 5.94351 14.4266 5.73517C14.9333 5.5267 15.4761 5.42014 16.024 5.42157C16.5719 5.423 17.1142 5.53239 17.6198 5.7435C18.1254 5.9546 18.5845 6.26328 18.9707 6.65188L18.9707 6.65189L18.9729 6.65408C19.7556 7.43339 20.1968 8.49154 20.1997 9.59601C20.2026 10.7001 19.7671 11.7603 18.989 12.5436C18.9888 12.5438 18.9885 12.5441 18.9883 12.5443L12.1208 19.4074L12.1208 19.4074C12.0958 19.4324 12.0618 19.4465 12.0265 19.4465C11.9912 19.4465 11.9573 19.4325 11.9323 19.4075C11.9323 19.4075 11.9322 19.4075 11.9322 19.4075C11.9322 19.4074 11.9322 19.4074 11.9322 19.4074L5.02819 12.502L5.02714 12.5009C4.2441 11.7216 3.80261 10.6631 3.79972 9.55836C3.79684 8.45415 4.23234 7.39396 5.01054 6.61064C5.79387 5.83244 6.85405 5.39694 7.95826 5.39982C9.06305 5.4027 10.1215 5.8442 10.9008 6.62724Z" stroke="#769763" stroke-width="1.2"/>
</svg>
