<svg width="44" height="44" viewBox="0 0 44 44" fill="none" xmlns="http://www.w3.org/2000/svg">
<path d="M23.6178 20.383C22.7597 19.5253 21.5961 19.0435 20.3829 19.0435C19.1696 19.0435 18.006 19.5253 17.1479 20.383L13.912 23.618C13.0539 24.4761 12.5718 25.6399 12.5718 26.8534C12.5718 28.067 13.0539 29.2308 13.912 30.0889C14.77 30.947 15.9339 31.4291 17.1474 31.4291C18.3609 31.4291 19.5248 30.947 20.3829 30.0889L22.0003 28.4714" stroke="#ACACAC" stroke-width="1.76" stroke-linecap="round" stroke-linejoin="round"/>
<path d="M20.3828 23.6178C21.2409 24.4755 22.4045 24.9574 23.6178 24.9574C24.831 24.9574 25.9946 24.4755 26.8527 23.6178L30.0887 20.3829C30.9468 19.5248 31.4289 18.3609 31.4289 17.1474C31.4289 15.9339 30.9468 14.77 30.0887 13.912C29.2306 13.0539 28.0668 12.5718 26.8532 12.5718C25.6397 12.5718 24.4759 13.0539 23.6178 13.912L22.0003 15.5294" stroke="#ACACAC" stroke-width="1.76" stroke-linecap="round" stroke-linejoin="round"/>
</svg>
