<svg width="20" height="21" viewBox="0 0 20 21" fill="none" xmlns="http://www.w3.org/2000/svg">
<path d="M15.5758 9.28789C15.5758 13.5303 10.1212 17.1667 10.1212 17.1667C10.1212 17.1667 4.66669 13.5303 4.66669 9.28789C4.66669 7.84125 5.24136 6.45387 6.26429 5.43094C7.28721 4.40802 8.6746 3.83334 10.1212 3.83334C11.5679 3.83334 12.9553 4.40802 13.9782 5.43094C15.0011 6.45387 15.5758 7.84125 15.5758 9.28789Z" stroke="#769763" stroke-linecap="round" stroke-linejoin="round"/>
<path d="M10.1212 11.1061C11.1254 11.1061 11.9394 10.2921 11.9394 9.28791C11.9394 8.28375 11.1254 7.46973 10.1212 7.46973C9.11707 7.46973 8.30304 8.28375 8.30304 9.28791C8.30304 10.2921 9.11707 11.1061 10.1212 11.1061Z" stroke="#769763" stroke-linecap="round" stroke-linejoin="round"/>
</svg>
