<svg width="368" height="268" viewBox="0 0 368 268" fill="none" xmlns="http://www.w3.org/2000/svg">
<circle opacity="0.8" cx="173.844" cy="108.063" r="59.9369" fill="#A1B893"/>
<circle cx="224.565" cy="73.5659" r="11.8498" fill="#F1D675"/>
<circle cx="94.2165" cy="156.515" r="8.21653" stroke="#E9BD22" stroke-width="2"/>
<circle cx="217.981" cy="22.2165" r="8.21653" stroke="#769763" stroke-width="2"/>
<circle cx="269.989" cy="149.273" r="12.5082" fill="#A1B893"/>
<circle cx="147.658" cy="83.6227" r="44.2253" fill="#A1B893"/>
<circle cx="147.658" cy="83.6227" r="40.2253" stroke="#828282" stroke-width="8"/>
<circle opacity="0.6" cx="147.658" cy="83.6228" r="40.1519" fill="#E7E7E7"/>
<circle opacity="0.6" cx="147.658" cy="83.6228" r="35.4966" fill="white"/>
<path d="M175.008 116.792L191.884 133.667" stroke="#737373" stroke-width="4"/>
<path d="M191.884 133.667L219.815 161.599" stroke="#F1D675" stroke-width="8" stroke-linecap="round"/>
<path d="M123.218 83.6226C123.218 70.1247 134.16 59.1824 147.658 59.1824" stroke="white" stroke-width="10" stroke-linecap="round"/>
<path d="M103.64 213.016C102.8 211.924 101.12 210.216 99.804 209.04L97.844 210.328C99.132 211.56 100.784 213.324 101.512 214.5L103.64 213.016ZM89.836 220.38C88.772 220.688 87.68 220.968 86.644 221.248V216.404H89.864V213.996H86.644V208.536H84.096V213.996H80.372V216.404H84.096V221.92C82.556 222.34 81.156 222.648 80.008 222.928L80.708 225.42L84.096 224.496V231.104C84.096 231.524 83.956 231.636 83.564 231.664C83.228 231.664 82.024 231.664 80.82 231.636C81.128 232.28 81.492 233.344 81.576 233.988C83.48 233.988 84.74 233.932 85.552 233.512C86.364 233.148 86.644 232.476 86.644 231.132V223.796C87.82 223.46 88.996 223.096 90.144 222.76L89.836 220.38ZM101.988 218.756C101.092 220.8 99.776 222.788 98.236 224.636C97.704 222.732 97.284 220.492 96.976 217.972L105.432 217.104L105.18 214.64L96.724 215.508C96.5 213.352 96.388 211.056 96.304 208.648H93.672C93.784 211.14 93.924 213.52 94.12 215.788L90.172 216.152L90.424 218.644L94.344 218.252C94.764 221.556 95.296 224.44 96.052 226.82C94.008 228.724 91.656 230.264 89.164 231.244C89.92 231.776 90.76 232.616 91.264 233.288C93.28 232.336 95.268 230.992 97.06 229.424C98.404 232.168 100.224 233.82 102.688 234.044C104.172 234.184 105.432 232.812 106.104 228.024C105.572 227.772 104.424 227.128 103.92 226.54C103.696 229.564 103.276 231.02 102.576 230.964C101.204 230.796 100.056 229.508 99.16 227.38C101.204 225.168 102.94 222.648 104.088 220.072L101.988 218.756ZM135.224 213.072V210.412H111.256V213.072H123.072C120.384 217.636 115.792 222.116 110.472 224.72C111.032 225.28 111.844 226.344 112.264 227.044C115.876 225.14 119.124 222.48 121.812 219.484V234.184H124.64V215.956C125.312 215.004 125.9 214.024 126.488 213.072H135.224ZM124.752 219.008C127.944 221.276 132.088 224.608 133.964 226.764L136.148 224.748C134.104 222.592 129.848 219.428 126.712 217.328L124.752 219.008ZM149.924 225.196H155.216V222.928H149.924V220.156H147.46V222.928H142.168V225.196H147.46V229.508C145.108 229.928 142.896 230.292 141.216 230.516L141.776 232.98C145.472 232.28 150.736 231.3 155.664 230.348L155.524 228.08C153.648 228.416 151.772 228.752 149.924 229.06V225.196ZM141.468 212.512H145.472C144.688 214.276 143.736 215.788 143.4 216.264C142.924 216.936 142.504 217.412 142.056 217.524C142.364 218.168 142.728 219.372 142.896 219.904C143.652 219.596 144.716 219.456 152.976 218.756C153.312 219.288 153.564 219.848 153.788 220.296L155.804 219.008C154.992 217.384 153.228 214.864 151.716 213.044L149.84 214.136C150.456 214.892 151.072 215.788 151.688 216.684L145.5 217.16C146.536 215.788 147.544 214.136 148.356 212.512H155.832V210.244H141.468V212.512ZM159.584 210.972H157.148V227.772H159.584V210.972ZM162.552 208.9V230.572C162.552 231.048 162.412 231.188 161.936 231.188C161.488 231.216 159.948 231.216 158.38 231.16C158.772 231.832 159.192 233.008 159.304 233.68C161.404 233.68 162.916 233.624 163.868 233.204C164.764 232.812 165.1 232.056 165.1 230.572V208.9H162.552ZM178.008 216.824H181.76V214.36H178.008V208.508H175.516V214.36H171.232V216.824H175.18C174.284 220.408 172.464 224.524 170.588 226.82C170.98 227.408 171.596 228.472 171.876 229.2C173.22 227.464 174.508 224.72 175.516 221.836V234.184H178.008V221.92C178.96 223.264 179.996 224.804 180.472 225.728L182.04 223.628C181.48 222.9 178.988 219.96 178.008 218.952V216.824ZM185.4 229.956V225.672H193.016V229.956H185.4ZM193.016 212.54V216.656H185.4V212.54H193.016ZM185.4 219.036H193.016V223.292H185.4V219.036ZM182.908 210.076V233.988H185.4V232.336H193.016V233.848H195.62V210.076H182.908ZM204.916 214.892H210.404V216.544H204.916V214.892ZM210.404 211.476V213.212H204.916V211.476H210.404ZM211.132 223.096C211.272 223.404 211.44 223.768 211.608 224.132L209.284 224.328C210.656 223.292 212 222.06 213.232 220.744L211.86 219.792C211.496 220.268 211.104 220.716 210.712 221.164L208.892 221.248C209.62 220.576 210.32 219.736 210.964 218.896L209.928 218.364H212.84V209.628H202.452V234.24H204.916V218.364H209.256C208.612 219.428 207.66 220.436 207.38 220.688C207.072 220.968 206.764 221.136 206.484 221.192C206.708 221.612 206.932 222.452 207.016 222.816C207.296 222.704 207.744 222.62 209.368 222.48C208.696 223.124 208.164 223.572 207.884 223.768C207.324 224.188 206.82 224.468 206.4 224.496C206.596 224.944 206.82 225.756 206.904 226.092C207.296 225.924 207.996 225.784 212.112 225.364C212.196 225.644 212.308 225.896 212.392 226.148H211.244V228.668C211.244 228.808 211.244 228.948 211.244 229.088H209.032V226.596H207.352V230.628H210.824C210.404 231.384 209.564 232.084 207.912 232.588C208.276 232.896 208.864 233.624 209.088 234.072C212.588 232.84 213.092 230.852 213.092 228.724V226.148H212.728L213.82 225.728C213.54 225 212.952 223.684 212.448 222.704L211.132 223.096ZM220.54 231.44V226.596H218.776V229.088H216.536V226.148H214.66V233.82H216.536V230.628H218.776V231.44H220.54ZM217.488 216.544V214.892H223.144V216.544H217.488ZM223.144 211.476V213.212H217.488V211.476H223.144ZM225.636 209.628H215.024V218.364H216.76C216.144 219.456 215.164 220.492 214.884 220.716C214.576 220.996 214.296 221.164 213.988 221.22C214.184 221.668 214.408 222.48 214.52 222.844C214.772 222.704 215.22 222.62 216.872 222.48C216.228 223.124 215.668 223.572 215.416 223.768C214.828 224.244 214.352 224.496 213.932 224.58C214.128 224.972 214.352 225.812 214.408 226.148C214.828 225.952 215.528 225.812 219.644 225.364C219.784 225.728 219.924 226.036 220.008 226.288L221.352 225.756C221.072 224.972 220.456 223.656 219.896 222.704L218.608 223.152C218.776 223.432 218.944 223.796 219.112 224.16L216.816 224.356C218.16 223.32 219.532 222.032 220.764 220.716L219.392 219.764C219.028 220.268 218.608 220.716 218.188 221.164L216.424 221.248C217.096 220.576 217.824 219.764 218.44 218.924L217.376 218.364H223.144V231.076C223.144 231.468 223.032 231.58 222.64 231.608C222.304 231.608 221.128 231.608 220.008 231.58C220.344 232.252 220.68 233.428 220.764 234.128C222.556 234.128 223.76 234.072 224.6 233.624C225.412 233.204 225.636 232.448 225.636 231.104V209.628ZM232.524 226.512C232.272 228.808 231.908 231.356 231.264 233.036C231.824 233.204 232.832 233.54 233.28 233.764C233.868 232.056 234.344 229.368 234.624 226.876L232.524 226.512ZM235.66 226.82C235.968 228.808 236.276 231.412 236.36 233.12L238.376 232.728C238.264 231.02 237.928 228.444 237.536 226.456L235.66 226.82ZM238.544 226.288C239.16 227.996 239.804 230.264 240.056 231.748L241.96 231.132C241.68 229.648 240.98 227.436 240.336 225.728L238.544 226.288ZM238.32 219.624C238.6 220.352 238.88 221.22 239.16 222.06L235.24 222.564C237.424 220.1 239.608 217.076 241.344 214.052L239.188 212.736C238.6 213.94 237.872 215.172 237.172 216.292L234.54 216.516C236.08 214.444 237.592 211.896 238.796 209.404L236.444 208.424C235.324 211.392 233.392 214.556 232.776 215.396C232.188 216.208 231.684 216.768 231.208 216.88C231.46 217.496 231.824 218.644 231.964 219.148C232.384 218.952 233 218.812 235.66 218.504C234.736 219.848 233.924 220.912 233.504 221.332C232.636 222.368 231.992 223.012 231.376 223.124C231.628 223.796 232.048 225 232.16 225.476C232.748 225.168 233.7 224.972 239.692 224.076C239.832 224.636 239.944 225.112 240.028 225.56L242.072 224.86C241.792 223.404 240.98 220.94 240.252 219.092L238.32 219.624ZM252.768 225.7V230.628H245.74V225.7H252.768ZM243.304 234.184H245.74V232.98H252.768V234.072H255.288V223.348H243.304V234.184ZM256.744 214.5V212.092H250.5V208.508H247.812V212.092H241.96V214.5H247.812V218.364H242.744V220.744H256.016V218.364H250.5V214.5H256.744ZM267.608 218.896V216.46H273.096V218.896H267.608ZM267.608 212.036H273.096V214.416H267.608V212.036ZM281.356 214.416H275.84V212.036H281.356V214.416ZM281.356 218.896H275.84V216.46H281.356V218.896ZM286.704 225.56V223.18H275.84V221.108H284.156V209.852H264.92V221.108H273.096V223.18H262.204V225.56H271.08C268.644 227.968 264.92 230.124 261.476 231.216C262.036 231.748 262.848 232.756 263.212 233.372C266.74 232.056 270.464 229.648 273.096 226.82V234.212H275.84V226.68C278.528 229.424 282.28 231.888 285.696 233.232C286.116 232.56 286.9 231.58 287.488 231.02C284.1 229.956 280.376 227.856 277.856 225.56H286.704Z" fill="#737373"/>
<path d="M4.496 251.752C4.336 251.192 3.984 250.312 3.648 249.656L2.656 249.96C2.96 250.632 3.312 251.544 3.456 252.12L4.496 251.752ZM4.704 259.64V262.312H2.256V259.64H4.704ZM5.76 258.664H1.216V264.024H2.256V263.288H5.76V258.664ZM1.152 257.416H5.808V256.472H1.152V257.416ZM5.792 254.312H1.136V255.256H5.792V254.312ZM0.768 253.272H6.256V252.296H0.768V253.272ZM8.416 260.776C8.448 260.36 8.464 259.96 8.464 259.592H13.264V260.776H8.416ZM13.264 257.56V258.744H8.464V257.56H13.264ZM14.384 256.616H7.376V259.56C7.376 260.824 7.264 262.44 6.32 263.64C6.56 263.768 6.976 264.2 7.152 264.424C7.808 263.64 8.128 262.632 8.304 261.624H13.264V262.984C13.264 263.16 13.216 263.224 13.008 263.224C12.816 263.24 12.16 263.24 11.44 263.208C11.6 263.496 11.728 263.896 11.776 264.2C12.784 264.2 13.44 264.2 13.84 264.024C14.272 263.848 14.384 263.56 14.384 262.984V256.616ZM11.376 254.76V253.672H14.848V252.808H11.376V251.832H15.152V250.92H11.376V249.624H10.208V250.92H6.608V251.832H10.208V252.808H7.008V253.672H10.208V254.76H6.432V255.672H15.312V254.76H11.376ZM23.088 257.48C22.832 257.064 21.84 255.416 21.44 254.824V253.8H22.912V253.624C23.152 253.832 23.472 254.152 23.616 254.36C24.208 254.024 24.784 253.656 25.328 253.24V254.168H30.096V253.208H25.376C26.192 252.6 26.928 251.912 27.552 251.176C28.896 252.36 30.816 253.544 32.464 254.248C32.56 253.944 32.8 253.464 32.992 253.176C31.36 252.6 29.36 251.512 28.16 250.424C28.288 250.248 28.4 250.056 28.512 249.88L27.36 249.512C26.496 250.968 24.8 252.504 22.912 253.512V252.68H21.44V249.608H20.464V252.68H18.56V253.8H20.304C19.904 255.912 19.088 258.344 18.272 259.624C18.448 259.928 18.688 260.456 18.8 260.792C19.424 259.736 20.032 258.024 20.464 256.28V264.216H21.44V256.184C21.84 256.936 22.32 257.88 22.512 258.376L23.088 257.48ZM29.168 256.2H30.928V258.296H29.168V256.2ZM28.24 259.16H31.904V255.32H28.24V259.16ZM24.592 256.2H26.304V258.296H24.592V256.2ZM23.68 259.16H27.248V255.32H23.68V259.16ZM25.04 259.528C24.528 261.256 23.44 262.632 21.984 263.496C22.24 263.688 22.624 264.072 22.8 264.28C23.728 263.64 24.56 262.776 25.184 261.736C25.824 262.2 26.48 262.728 26.816 263.112L27.456 262.312C27.056 261.912 26.304 261.336 25.648 260.92C25.824 260.536 25.968 260.152 26.096 259.736L25.04 259.528ZM29.488 259.512C29.152 261.24 28.288 262.6 26.992 263.448C27.232 263.64 27.648 264.024 27.792 264.232C28.608 263.656 29.264 262.888 29.744 261.976C30.672 262.616 31.664 263.432 32.208 263.992L32.928 263.176C32.32 262.568 31.168 261.704 30.16 261.064C30.336 260.616 30.464 260.152 30.576 259.656L29.488 259.512ZM36.432 263.72H50.032V262.648H36.432V263.72ZM46.256 258.472H40.096V257.096H46.256V258.472ZM46.256 260.696H40.096V259.304H46.256V260.696ZM50.24 251.64H43.744V249.624H42.576V251.64H36.176V252.696H41.392C40.032 254.216 37.888 255.592 35.936 256.264C36.176 256.504 36.528 256.92 36.704 257.224C38.816 256.36 41.104 254.744 42.576 252.92V256.248H38.928V261.56H47.456V256.248H43.744V252.936C45.728 254.216 48.112 255.96 49.328 257.096L50.112 256.232C48.992 255.24 47.024 253.848 45.232 252.696H50.24V251.64ZM54.96 256.824H56.192V258.36H54.96V256.824ZM54.96 254.44H56.192V255.96H54.96V254.44ZM58.24 255.96H57.056V254.44H58.24V255.96ZM58.24 258.36H57.056V256.824H58.24V258.36ZM59.52 261.528V260.488H57.168V259.256H59.184V253.544H57.136V252.344H59.488V251.32H57.136V249.624H56.096V251.32H53.696V252.344H56.096V253.544H54.032V259.256H56.08V260.488H53.536V261.528H56.08V264.216H57.168V261.528H59.52ZM61.056 260.152C61.072 259.736 61.088 259.304 61.088 258.936V258.712H62.896V260.152H61.056ZM62.896 256.456V257.832H61.088V256.456H62.896ZM63.808 255.576H60.16V258.936C60.16 260.36 60.064 262.216 59.216 263.608C59.44 263.704 59.824 264.024 60 264.2C60.56 263.288 60.832 262.136 60.976 261.032H62.896V263C62.896 263.144 62.848 263.192 62.704 263.192C62.56 263.192 62.08 263.208 61.536 263.192C61.664 263.448 61.808 263.832 61.856 264.088C62.592 264.088 63.072 264.072 63.392 263.912C63.712 263.752 63.808 263.48 63.808 263V255.576ZM66.016 253.464H61.728V254.392H66.016V253.464ZM65.632 255.864H64.768V261.576H65.632V255.864ZM66.656 262.904C66.656 263.096 66.592 263.144 66.4 263.16C66.208 263.176 65.584 263.176 64.848 263.16C64.976 263.416 65.12 263.784 65.168 264.04C66.112 264.04 66.704 264.04 67.088 263.88C67.456 263.72 67.552 263.448 67.552 262.92V255.304H66.656V262.904ZM63.648 249.512C62.768 251.208 61.136 252.808 59.424 253.704C59.696 253.928 60.016 254.28 60.192 254.552C61.568 253.736 62.848 252.552 63.808 251.176C64.848 252.584 66.064 253.592 67.504 254.456C67.664 254.152 67.952 253.816 68.224 253.592C66.704 252.776 65.392 251.8 64.336 250.344C64.432 250.184 64.528 250.024 64.608 249.864L63.648 249.512ZM74.08 250.584V251.768H78.016C78.048 252.376 78.112 253.08 78.224 253.816L77.52 253.704C76.544 258.184 74.576 261.4 71.04 263.24C71.36 263.448 71.888 263.944 72.112 264.184C75.296 262.312 77.312 259.4 78.496 255.256C79.216 258.28 80.912 261.784 84.848 264.168C85.056 263.88 85.536 263.368 85.808 263.176C79.536 259.448 79.168 253.416 79.168 250.584H74.08ZM90.496 252.424H101.44V254.552H102.656V251.288H97.008C96.784 250.744 96.352 250.04 95.936 249.496L94.8 249.88C95.104 250.296 95.408 250.824 95.632 251.288H89.328V254.552H90.496V252.424ZM102.816 258.184H96.608V257.592C98 256.856 99.424 255.784 100.432 254.744L99.616 254.136L99.36 254.2H91.76V255.32H98.16C97.36 256.024 96.304 256.744 95.376 257.192V258.184H89.136V259.32H95.376V262.744C95.376 262.968 95.296 263.032 94.992 263.048C94.72 263.064 93.696 263.064 92.608 263.032C92.816 263.336 93.056 263.864 93.152 264.2C94.48 264.2 95.312 264.184 95.872 263.992C96.432 263.816 96.608 263.464 96.608 262.76V259.32H102.816V258.184ZM110.112 251.608C109.888 251.032 109.408 250.2 108.976 249.544L108.112 250.024C108.512 250.68 109.008 251.576 109.232 252.152L110.112 251.608ZM110.512 259.624V262.264H108.112V259.624H110.512ZM111.552 258.632H107.056V264.008H108.112V263.256H111.552V258.632ZM107.072 257.448H111.536V256.504H107.072V257.448ZM107.072 254.424V255.368H111.52V254.424H107.072ZM106.448 253.304H112.096V252.328H106.448V253.304ZM116.576 256.408V259.416H114.112V256.408H116.576ZM117.632 260.456V255.368H113.088V261.528H114.112V260.456H117.632ZM118.384 252.968H112.512V253.992H118.368L118.384 252.968ZM120.352 250.424H112.144V251.528H119.248V262.68C119.248 262.952 119.152 263.048 118.88 263.048C118.608 263.064 117.68 263.08 116.704 263.032C116.88 263.336 117.056 263.896 117.104 264.216C118.384 264.216 119.216 264.2 119.712 263.992C120.176 263.8 120.352 263.432 120.352 262.68V250.424ZM135.152 257.336H128.48V255.72H135.152V257.336ZM128.432 260.04C128.464 259.624 128.48 259.24 128.48 258.856V258.36H135.152V260.04H128.432ZM138.192 252.792V251.672H130.032C130.272 251.096 130.48 250.488 130.656 249.896L129.472 249.608C129.28 250.296 129.04 250.984 128.768 251.672H124.272V252.792H128.256C127.264 254.856 125.824 256.744 123.952 258.008C124.176 258.248 124.544 258.68 124.704 258.936C125.68 258.248 126.544 257.4 127.296 256.488V258.824C127.296 260.344 127.152 262.104 125.824 263.384C126.08 263.56 126.512 264.056 126.656 264.312C127.6 263.432 128.08 262.232 128.288 261.064H135.152V262.728C135.152 262.968 135.056 263.048 134.784 263.064C134.496 263.064 133.536 263.08 132.464 263.032C132.64 263.368 132.816 263.848 132.864 264.2C134.224 264.2 135.12 264.184 135.648 263.992C136.16 263.8 136.32 263.448 136.32 262.728V254.648H128.576C128.928 254.056 129.248 253.416 129.552 252.792H138.192ZM155.344 252.52V251.448H145.008C145.36 250.936 145.68 250.392 145.952 249.848L144.896 249.512C144.128 251.08 142.848 252.6 141.504 253.56C141.744 253.784 142.112 254.264 142.24 254.488C142.928 253.944 143.6 253.272 144.208 252.52H155.344ZM143.136 264.232C143.728 263.384 144.352 262.056 144.752 261.016L143.632 260.728C143.232 261.768 142.576 263.016 142.016 263.784L143.136 264.232ZM146.304 261.176C146.496 262.136 146.64 263.368 146.64 264.104L147.808 263.928C147.792 263.208 147.616 262.008 147.408 261.08L146.304 261.176ZM149.6 261.144C150 262.088 150.416 263.32 150.56 264.072L151.728 263.832C151.568 263.08 151.136 261.864 150.688 260.952L149.6 261.144ZM152.896 261.08C153.472 262.072 154.192 263.4 154.496 264.2L155.648 263.704C155.296 262.92 154.56 261.608 153.968 260.648L152.896 261.08ZM145.28 256.28H146.944V259H145.28V256.28ZM149.824 256.28V259H147.968V256.28H149.824ZM152.608 256.28V259H150.848V256.28H152.608ZM153.712 259V256.28H155.52V255.208H153.712V253.448H152.608V255.208H150.848V253.448H149.824V255.208H147.968V253.448H146.944V255.208H145.28V253.448H144.208V255.208H142.288V256.28H144.208V259H141.76V260.072H155.856V259H153.712ZM162.768 261.896V257.464H164.944V256.424H162.768V254.696H164.448V253.656H160.56C161.168 253.016 161.76 252.264 162.272 251.48C163.232 252.168 164.224 253 164.848 253.656L165.392 252.68C164.768 252.072 163.776 251.272 162.8 250.616C162.928 250.392 163.04 250.152 163.136 249.944L162.224 249.528C161.472 251.08 160.208 252.552 158.976 253.496C159.12 253.784 159.392 254.424 159.472 254.696C159.744 254.472 159.984 254.248 160.256 253.976V254.696H161.792V256.424H159.376V257.464H161.792V262.088C160.8 262.296 159.904 262.472 159.2 262.6L159.456 263.672C160.96 263.336 163.056 262.856 165.008 262.392L164.928 261.432L162.768 261.896ZM159.68 258.52C159.952 259.448 160.208 260.68 160.256 261.48L161.088 261.24C161.008 260.456 160.752 259.24 160.448 258.312L159.68 258.52ZM163.904 261.288C164.176 260.552 164.512 259.384 164.8 258.408L163.92 258.12C163.776 258.984 163.456 260.248 163.2 261.032L163.904 261.288ZM171.6 258.232V259.864H167.424V258.232H171.6ZM167.424 262.52V260.84H171.6V262.52H167.424ZM166.368 264.216H167.424V263.512H171.6V264.184H172.72V257.208H166.368V264.216ZM168.272 252.76H170.736V254.856H168.272V252.76ZM171.808 254.856V252.76H173.2V251.704H171.808V249.624H170.736V251.704H168.272V249.624H167.2V251.704H165.68V252.76H167.2V254.856H165.36V255.944H173.648V254.856H171.808ZM188.816 253.8H185.744V251.096H188.816V253.8ZM189.936 250.104H184.688V254.808H189.936V250.104ZM180.48 251.768C180.288 251.208 179.84 250.328 179.44 249.672L178.432 250.024C178.816 250.696 179.248 251.592 179.44 252.184L180.48 251.768ZM182.336 252.264H176.672V253.256H182.336V252.264ZM180.816 259.672V262.344H178.256V259.672H180.816ZM181.84 258.696H177.232V264.056H178.256V263.32H181.84V258.696ZM177.248 257.496H181.856V256.536H177.248V257.496ZM177.248 255.368H181.856V254.424H177.248V255.368ZM187.104 256.936H189.328V259H187.088C187.104 258.792 187.104 258.616 187.104 258.408V256.936ZM191.312 260.088V259H190.464V255.896H184.048V251.112H183.008V256.936H186V258.392C186 258.6 186 258.792 185.984 259H182.24V260.088H185.776C185.408 261.288 184.416 262.488 181.872 263.4C182.112 263.608 182.448 264.008 182.608 264.264C185.552 263.16 186.592 261.64 186.944 260.088H191.312ZM186.688 261.448C188.032 262.296 189.808 263.496 190.704 264.232L191.424 263.368C190.496 262.664 188.704 261.496 187.408 260.696L186.688 261.448ZM200.288 259.992C201.968 259.4 203.056 258.088 203.056 256.36C203.056 255.24 202.576 254.52 201.696 254.52C201.04 254.52 200.48 254.92 200.48 255.672C200.48 256.424 201.024 256.808 201.68 256.808C201.776 256.808 201.856 256.808 201.952 256.792C201.872 257.88 201.168 258.632 199.936 259.144L200.288 259.992ZM225.68 251.32C225.088 250.792 223.904 250.104 222.928 249.672L222.24 250.408C223.216 250.872 224.384 251.608 224.944 252.152L225.68 251.32ZM219.28 260.504C216.688 261.048 213.968 261.592 212.24 261.928L212.464 263.128C214.32 262.712 216.928 262.152 219.376 261.624L219.28 260.504ZM217.6 258.552H214.352V255.784H217.6V258.552ZM213.248 254.744V259.576H218.768V254.744H213.248ZM224.304 254.472C223.792 256.136 223.104 257.608 222.24 258.92C221.84 257.368 221.568 255.448 221.408 253.336H226.128V252.168H221.328C221.296 251.352 221.28 250.52 221.28 249.656H220.032C220.048 250.504 220.064 251.336 220.112 252.168H212.32V253.336H220.176C220.384 255.928 220.736 258.296 221.296 260.168C220.24 261.448 218.96 262.504 217.456 263.304C217.728 263.512 218.192 263.976 218.384 264.216C219.648 263.464 220.768 262.552 221.76 261.464C222.48 263.192 223.44 264.232 224.64 264.232C225.872 264.232 226.32 263.448 226.528 260.712C226.192 260.6 225.76 260.328 225.488 260.04C225.392 262.168 225.2 263 224.752 263C223.968 263 223.248 262.008 222.656 260.36C223.856 258.776 224.8 256.904 225.504 254.76L224.304 254.472ZM240.768 260.312V261.256H232.928V260.312H240.768ZM232.928 262.984V261.992H240.768V262.984H232.928ZM231.808 264.216H232.928V263.816H240.768V264.2H241.936V259.496H231.808V264.216ZM233.424 257.864C232.512 257.864 232.32 257.688 232.32 257.16V257.096H242.192V256.28H232.32V255.416H231.248V257.128C231.248 258.248 231.744 258.696 233.424 258.696H240.368C241.424 258.696 242.56 258.68 242.976 258.584C242.944 258.392 242.896 258.072 242.848 257.736C242.336 257.832 240.96 257.864 240.176 257.864H233.424ZM239.968 254.856H233.632V253.848H239.968V254.856ZM232.528 253.112V255.576H241.136V253.112H232.528ZM240.688 251.432C241.088 251.048 241.584 250.552 242.016 250.024L240.816 249.656C240.544 250.12 239.984 250.808 239.568 251.24L240.128 251.432H237.376V249.608H236.176V251.432H233.424L234.048 251.192C233.776 250.776 233.28 250.168 232.784 249.72L231.712 250.072C232.112 250.456 232.544 251.016 232.8 251.432H230.176V254.216H231.28V252.296H242.32V254.216H243.472V251.432H240.688ZM261.28 251.928C261.008 251.384 260.4 250.552 259.84 249.96L259.008 250.424C259.568 251.064 260.16 251.944 260.416 252.488L261.28 251.928ZM250.832 251.592C250.608 251.032 250.08 250.2 249.616 249.544L248.704 250.008C249.136 250.68 249.648 251.56 249.888 252.152L250.832 251.592ZM251.12 259.624V262.264H248.896V259.624H251.12ZM252.16 258.632H247.872V264.008H248.896V263.256H252.16V258.632ZM247.888 257.448H252.144V256.504H247.888V257.448ZM252.144 254.424H247.888V255.368H252.144V254.424ZM247.216 253.304H252.432V252.328H247.216V253.304ZM255.456 257.192H257.168V256.12H252.688V257.192H254.368V261.416C253.648 261.592 252.992 261.752 252.432 261.88L252.768 263.032C254.192 262.616 256.048 262.104 257.808 261.56L257.696 260.552C256.944 260.744 256.176 260.952 255.456 261.144V257.192ZM261.744 253.864V252.744H258.64C258.608 251.752 258.592 250.728 258.608 249.656H257.44C257.456 250.712 257.472 251.736 257.504 252.744H252.832V253.864H257.552C257.808 259.672 258.544 264.248 260.336 264.248C261.328 264.248 261.648 263.496 261.824 261.112C261.552 261 261.184 260.728 260.928 260.472C260.88 262.264 260.736 263.08 260.496 263.08C259.648 263.08 258.896 259.208 258.672 253.864H261.744ZM269.024 257.96H274.944V259.704H269.024V257.96ZM274.944 252.6V254.184H269.024V252.6H274.944ZM269.024 255.208H274.944V256.936H269.024V255.208ZM279.056 259.704H276.128V252.6H278.688V251.48H276.128V249.656H274.944V251.48H269.024V249.656H267.856V251.48H265.376V252.6H267.856V259.704H264.928V260.808H279.072L279.056 259.704ZM269.792 261.096C268.672 261.864 266.496 262.776 264.768 263.288C265.024 263.544 265.376 263.944 265.552 264.2C267.264 263.624 269.424 262.712 270.848 261.832L269.792 261.096ZM273.184 261.928C275.024 262.616 276.928 263.496 278.048 264.168L279.12 263.368C277.888 262.712 275.856 261.832 273.984 261.176L273.184 261.928ZM288.16 262.664C286.752 262.664 286.48 262.488 286.48 261.672V259.176C289.168 258.472 292.144 257.56 294.176 256.552L293.2 255.624C291.632 256.504 288.992 257.416 286.48 258.104V254.488H285.264V261.672C285.264 263.384 285.92 263.832 288.176 263.832H293.12C295.2 263.832 295.664 263.128 295.888 260.648C295.536 260.568 295.024 260.36 294.704 260.152C294.544 262.264 294.368 262.664 293.104 262.664H288.16ZM290.448 251.768L290.656 251.704C290.464 251.112 289.984 250.184 289.568 249.496L288.416 249.816C288.784 250.44 289.136 251.192 289.328 251.768H283.04V255.064H284.208V252.92H294.88V255.064H296.096V251.768H290.448ZM313.584 250.792H310.272V251.8H312.544V253.368H310.384V254.36H312.544V255.96H310.272V256.984H313.584V250.792ZM307.984 255.944H305.84V254.36H307.888V253.368H305.84V251.736C306.544 251.528 307.344 251.256 308.048 250.92L307.312 250.072C306.672 250.424 305.536 250.936 304.784 251.208V256.968H307.984V255.944ZM304.448 257.56L304.24 256.472L302.928 256.968V253.928H304.288V252.824H302.928V249.64H301.824V252.824H300.048V253.928H301.824V257.368C301.088 257.64 300.416 257.864 299.872 258.04L300.208 259.176C300.704 258.984 301.248 258.776 301.824 258.568V262.712C301.824 262.92 301.744 262.968 301.552 262.984C301.376 262.984 300.784 262.984 300.144 262.968C300.304 263.288 300.448 263.768 300.48 264.088C301.424 264.088 302.016 264.056 302.4 263.848C302.768 263.656 302.928 263.336 302.928 262.696V258.136L304.448 257.56ZM311.712 259.192C311.12 260.072 310.288 260.792 309.312 261.368C308.288 260.76 307.472 260.024 306.864 259.192H311.712ZM312.64 258.104L312.432 258.152H309.68V249.64H308.544V258.152H304.608V259.192H306.176L305.728 259.352C306.352 260.344 307.2 261.208 308.208 261.928C306.848 262.568 305.296 262.968 303.712 263.192C303.904 263.464 304.16 263.928 304.256 264.248C306.048 263.928 307.776 263.416 309.28 262.616C310.624 263.384 312.176 263.912 313.856 264.232C314.016 263.912 314.336 263.432 314.608 263.176C313.072 262.936 311.648 262.536 310.416 261.944C311.68 261.08 312.72 259.928 313.376 258.472L312.64 258.104ZM328.656 254.072H319.744V254.92H329.84V253.128H331.936V252.184H329.84V250.408H319.824V251.256H328.656V252.264H317.76V253.08H328.656V254.072ZM318 259.304C319.696 259.176 322.048 258.984 324.352 258.792V257.896C323.44 257.976 322.528 258.04 321.648 258.104V256.632H324.032V255.752H318.224V256.632H320.528V258.184C319.536 258.264 318.64 258.312 317.904 258.36L318 259.304ZM326.24 256.584H329.888V258.152H326.24V256.584ZM332.016 259.96H328.72V258.984H331.072V255.752H325.136V258.984H327.552V259.96H317.6V260.952H320.944L320.24 261.56C321.168 262.088 322.224 262.92 322.736 263.528L323.584 262.776C323.088 262.2 322.064 261.448 321.184 260.952H327.552V262.968C327.552 263.208 327.488 263.256 327.216 263.272C326.944 263.272 325.984 263.288 324.944 263.256C325.104 263.544 325.264 263.944 325.328 264.232C326.72 264.232 327.536 264.232 328.064 264.072C328.576 263.912 328.72 263.624 328.72 263V260.952H332.016V259.96ZM343.536 252.008H347.184C346.704 252.84 346.048 253.56 345.232 254.152C344.464 253.512 343.872 252.792 343.488 252.072L343.536 252.008ZM349.44 252.008V251.048H344.16C344.368 250.664 344.56 250.296 344.736 249.896L343.664 249.624C343.04 251.08 341.952 252.44 340.736 253.32C340.96 253.528 341.36 253.976 341.504 254.184C341.968 253.816 342.416 253.368 342.848 252.872C343.232 253.512 343.728 254.136 344.384 254.728C343.312 255.4 342.08 255.88 340.736 256.232C340.96 256.456 341.296 256.952 341.424 257.192C342.816 256.76 344.112 256.184 345.232 255.448C346.256 256.184 347.504 256.792 349.008 257.16C349.168 256.888 349.456 256.44 349.68 256.216C348.288 255.912 347.088 255.416 346.128 254.792C347.088 254.024 347.888 253.112 348.48 252.008H349.44ZM338.176 249.64C337.456 252.104 336.288 254.536 334.976 256.136C335.184 256.424 335.504 257.048 335.616 257.336C336.048 256.792 336.496 256.152 336.896 255.448V264.232H338.032V253.224C338.496 252.184 338.928 251.048 339.264 249.944L338.176 249.64ZM339.328 261.512H340.368V251.752H339.328V261.512ZM342.576 259.912C342.08 260.984 341.264 262.056 340.384 262.792C340.656 262.92 341.104 263.224 341.312 263.384C342.144 262.6 343.024 261.384 343.616 260.2L342.576 259.912ZM349.296 259.256V258.2H345.728V256.568H344.608V258.2H341.168V259.256H344.608V264.2H345.728V259.256H349.296ZM346.656 260.328C347.44 261.176 348.304 262.36 348.672 263.16L349.616 262.648C349.216 261.864 348.352 260.712 347.536 259.864L346.656 260.328ZM356.32 249.672C355.472 252.088 354.064 254.472 352.576 256.024C352.784 256.296 353.136 256.904 353.248 257.192C353.744 256.632 354.256 256.008 354.72 255.32V264.2H355.856V253.48C356.464 252.376 356.992 251.192 357.44 250.024L356.32 249.672ZM367.168 257.544H362.832V254.04H366.48V252.872H362.832V249.816H361.648V252.872H359.52C359.728 252.152 359.904 251.4 360.048 250.648L358.928 250.408C358.56 252.472 357.904 254.552 356.96 255.864C357.264 256.008 357.76 256.296 357.984 256.472C358.416 255.8 358.8 254.968 359.136 254.04H361.648V257.544H357.088V258.712H361.648V264.232H362.832V258.712H367.168V257.544Z" fill="#737373"/>
</svg>
