<svg width="24" height="24" viewBox="0 0 24 24" fill="none" xmlns="http://www.w3.org/2000/svg">
<path d="M7.19961 4H16.7996C17.224 4 17.6309 4.16857 17.931 4.46863C18.231 4.76869 18.3996 5.17565 18.3996 5.6V20H5.59961V5.6C5.59961 5.17565 5.76818 4.76869 6.06824 4.46863C6.3683 4.16857 6.77526 4 7.19961 4ZM7.19961 18.4H10.3996V15.2H13.5996V18.4H16.7996V5.6H7.19961V18.4ZM12.7996 7.2H15.1996V9.6H12.7996V7.2ZM8.79961 11.2H11.1996V13.6H8.79961V11.2ZM12.7996 11.2H15.1996V13.6H12.7996V11.2ZM8.79961 7.2H11.1996V9.6H8.79961V7.2Z" fill="#769763"/>
</svg>
