<svg width="24" height="24" viewBox="0 0 24 24" fill="none" xmlns="http://www.w3.org/2000/svg">
<path d="M4 19.0297L5.15466 15.5657C4.15672 14.0898 3.79571 12.3419 4.13875 10.6471C4.4818 8.95237 5.50555 7.42598 7.01967 6.3518C8.53378 5.27761 10.4352 4.72872 12.3705 4.80719C14.3057 4.88566 16.143 5.58613 17.5408 6.77839C18.9386 7.97064 19.8018 9.57353 19.9699 11.289C20.1379 13.0045 19.5994 14.7159 18.4544 16.105C17.3095 17.494 15.636 18.4662 13.7451 18.8408C11.8543 19.2154 9.87472 18.9669 8.17453 18.1415L4 19.0297Z" stroke="#769763" stroke-width="1.4401" stroke-linecap="round" stroke-linejoin="round"/>
<path d="M11.9941 11.9243V11.9332" stroke="#769763" stroke-width="1.80012" stroke-linecap="round" stroke-linejoin="round"/>
<path d="M8.44141 11.9243V11.9332" stroke="#769763" stroke-width="1.80012" stroke-linecap="round" stroke-linejoin="round"/>
<path d="M15.5469 11.9243V11.9332" stroke="#769763" stroke-width="1.80012" stroke-linecap="round" stroke-linejoin="round"/>
</svg>
